<svg aria-hidden="true" style="position: absolute; width: 0; height: 0; overflow: hidden;" version="1.1" xmlns="http://www.w3.org/2000/svg" xmlns:xlink="http://www.w3.org/1999/xlink">
<defs>
<symbol id="icon-chevron-left" viewBox="0 0 19 32">
<title>chevron-left</title>
<path d="M18.284 3.579l-12.426 12.426 12.426 12.426-2.929 2.929-15.355-15.355 15.355-15.355 2.929 2.929z"></path>
</symbol>
<symbol id="icon-facebook" viewBox="0 0 32 32">
<title>facebook</title>
<path d="M17.893 32v-14.571h4.916l0.731-5.705h-5.646v-3.634c0-1.646 0.459-2.773 2.821-2.773h2.994v-5.086c-1.456-0.156-2.921-0.231-4.386-0.226-4.345 0-7.328 2.652-7.328 7.522v4.187h-4.884v5.705h4.894v14.581h5.888z"></path>
</symbol>
<symbol id="icon-instagram" viewBox="0 0 32 32">
<title>instagram</title>
<path d="M25.95 0.808c2.041 0.788 3.653 2.402 4.444 4.443 0.452 1.195 0.689 2.463 0.711 3.742 0.095 1.615 0.095 2.139 0.095 6.262v0c0 4.124-0.022 4.639-0.095 6.262-0.025 1.263-0.263 2.508-0.707 3.69-0.792 2.041-2.404 3.653-4.444 4.444-1.182 0.442-2.429 0.682-3.69 0.707-1.612 0.093-2.14 0.093-6.262 0.093s-4.637-0.022-6.262-0.093c-1.266-0.041-2.513-0.3-3.688-0.76-2.042-0.79-3.654-2.404-4.446-4.443-0.444-1.183-0.682-2.429-0.707-3.692-0.095-1.615-0.095-2.14-0.095-6.262 0-4.124 0.022-4.639 0.095-6.262 0.025-1.263 0.263-2.508 0.707-3.69 0.79-2.041 2.402-3.654 4.444-4.443 1.18-0.446 2.427-0.684 3.687-0.709 1.612-0.091 2.14-0.091 6.262-0.091s4.637 0.020 6.262 0.091c1.263 0.027 2.51 0.265 3.69 0.709zM27.814 24.19c0.338-0.913 0.513-1.877 0.525-2.849v0.002h0.019c0.073-1.614 0.073-2.056 0.073-6.168 0-4.114-0.019-4.564-0.091-6.17-0.015-0.962-0.194-1.916-0.525-2.817-0.515-1.328-1.563-2.378-2.89-2.89-0.903-0.336-1.855-0.513-2.819-0.525-1.632-0.093-2.054-0.093-6.168-0.093s-4.564 0.020-6.17 0.093c-0.96 0.014-1.916 0.191-2.817 0.525-1.332 0.51-2.387 1.558-2.902 2.89-0.338 0.913-0.513 1.875-0.525 2.848-0.089 1.636-0.089 2.056-0.089 6.169v0c0 4.112 0.017 4.564 0.089 6.168 0.015 0.962 0.194 1.916 0.525 2.817 0.515 1.33 1.57 2.38 2.902 2.888 0.901 0.336 1.857 0.513 2.817 0.525 1.634 0.093 2.054 0.093 6.17 0.093 4.112 0 4.564-0.019 6.168-0.093 0.964-0.014 1.916-0.189 2.819-0.525 1.327-0.51 2.375-1.56 2.89-2.888zM24.104 8.92c1.005 0 1.82-0.815 1.82-1.82s-0.815-1.82-1.82-1.82c-1.005 0-1.82 0.815-1.82 1.82s0.815 1.82 1.82 1.82zM15.99 7.388c-4.311 0-7.803 3.494-7.803 7.803 0 4.311 3.492 7.805 7.803 7.805 4.308 0 7.803-3.494 7.803-7.805 0-4.309-3.496-7.803-7.803-7.803zM15.99 20.262c-2.8 0-5.071-2.27-5.071-5.069 0-2.8 2.27-5.069 5.071-5.069s5.067 2.269 5.067 5.069c0 2.799-2.267 5.069-5.067 5.069z"></path>
</symbol>
<symbol id="icon-linkedin" viewBox="0 0 32 32">
<title>linkedin</title>
<path d="M7.657 3.852c0 2.127-1.724 3.852-3.852 3.852s-3.852-1.724-3.852-3.852c0-2.127 1.724-3.852 3.852-3.852s3.852 1.724 3.852 3.852zM11.294 31.99v-21.368h6.369v2.922h0.090c0.886-1.678 3.051-3.45 6.281-3.45 6.728 0 7.967 4.424 7.967 10.18v11.718h-6.638v-10.393c0-2.477-0.042-5.665-3.452-5.665-3.457 0-3.982 2.7-3.982 5.489v10.567h-6.635zM7.127 10.622h-6.645v21.368h6.645v-21.368z"></path>
</symbol>
<symbol id="icon-twitter" viewBox="0 0 32 32">
<title>twitter</title>
<path d="M28.213 9.595c0.021 0.28 0.021 0.558 0.021 0.837 0 8.52-6.485 18.338-18.336 18.338-3.651 0-7.043-1.058-9.898-2.894 0.518 0.059 1.018 0.080 1.557 0.080 3.013 0 5.786-1.018 8.002-2.754-2.834-0.059-5.208-1.915-6.027-4.469 0.398 0.059 0.798 0.099 1.218 0.099 0.578 0 1.158-0.080 1.698-0.219-2.955-0.598-5.168-3.192-5.168-6.325v-0.080c0.859 0.478 1.856 0.778 2.912 0.818-1.736-1.155-2.874-3.131-2.874-5.366 0-1.197 0.318-2.294 0.877-3.251 3.173 3.909 7.942 6.464 13.29 6.744-0.099-0.48-0.16-0.978-0.16-1.477 0-3.552 2.874-6.445 6.445-6.445 1.856 0 3.531 0.778 4.709 2.035 1.456-0.28 2.851-0.819 4.090-1.557-0.478 1.496-1.498 2.754-2.834 3.552 1.298-0.141 2.555-0.499 3.71-0.998-0.877 1.277-1.973 2.414-3.23 3.333z"></path>
</symbol>
<symbol id="icon-youtube" viewBox="0 0 32 32">
<title>youtube</title>
<path d="M31.349 8.165c-0.368-1.4-1.447-2.504-2.817-2.881-2.504-0.701-12.521-0.713-12.521-0.713s-10.015-0.011-12.521 0.659c-1.343 0.374-2.453 1.502-2.824 2.9-0.66 2.555-0.667 7.853-0.667 7.853s-0.006 5.324 0.649 7.853c0.368 1.398 1.447 2.502 2.819 2.879 2.529 0.701 12.519 0.713 12.519 0.713s10.017 0.011 12.521-0.657c1.369-0.375 2.453-1.478 2.825-2.876 0.662-2.553 0.667-7.85 0.667-7.85s0.032-5.326-0.651-7.881zM12.807 20.892l0.008-9.788 8.325 4.902-8.333 4.886z"></path>
</symbol>
<symbol id="icon-chevron-right" viewBox="0 0 21 32">
<title>chevron-right</title>
<path d="M4.195 0l15.995 15.995-15.995 15.995-3.051-3.051 12.944-12.944-12.944-12.944 3.051-3.051z"></path>
</symbol>
<symbol id="icon-arrow-right" viewBox="0 0 33 32">
<title>arrow-right</title>
<path d="M32.635 16l-15.355-15.355-2.929 2.929 10.355 10.355h-23.994v4.142h23.994l-10.355 10.355 2.929 2.929 15.355-15.355z"></path>
</symbol>
<symbol id="icon-close" viewBox="0 0 31 32">
<title>close</title>
<path d="M17.915 15.726l7.151-7.151c0.339-0.339 0.53-0.798 0.531-1.278s-0.19-0.94-0.529-1.279c-0.339-0.339-0.798-0.53-1.278-0.531s-0.94 0.19-1.279 0.528l-7.151 7.151-7.151-7.151c-0.339-0.339-0.8-0.53-1.28-0.53s-0.94 0.191-1.28 0.53c-0.339 0.339-0.53 0.8-0.53 1.28s0.191 0.94 0.53 1.28l7.151 7.151-7.151 7.151c-0.339 0.339-0.53 0.8-0.53 1.28s0.191 0.94 0.53 1.28 0.8 0.53 1.28 0.53c0.48 0 0.94-0.191 1.28-0.53l7.151-7.151 7.151 7.151c0.339 0.339 0.8 0.53 1.28 0.53s0.94-0.191 1.28-0.53 0.53-0.8 0.53-1.28c0-0.48-0.191-0.94-0.53-1.28l-7.155-7.151z"></path>
</symbol>
<symbol id="icon-copy" viewBox="0 0 32 32">
<title>copy</title>
<path d="M27.394 5.818h-16c-0.772 0-1.511 0.306-2.057 0.852s-0.852 1.285-0.852 2.057v20.364c0 0.771 0.306 1.511 0.852 2.057s1.286 0.852 2.057 0.852h16c0.771 0 1.511-0.307 2.057-0.852s0.852-1.286 0.852-2.057v-20.364c0-0.772-0.307-1.511-0.852-2.057s-1.285-0.852-2.057-0.852zM23.030 0h-17.454c-0.772 0-1.511 0.306-2.057 0.852s-0.852 1.286-0.852 2.057v20.364h2.909v-20.364h17.454v-2.909z"></path>
</symbol>
<symbol id="icon-external-link" viewBox="0 0 32 32">
<title>external-link</title>
<path d="M0 28.777l24.206-24.206h-15.063v-4.571h22.857v22.857h-4.571v-15.063l-24.206 24.206-3.223-3.223z"></path>
</symbol>
<symbol id="icon-link" viewBox="0 0 32 32">
<title>link</title>
<path d="M9.716 14.743c2.014-2.014 5.527-2.014 7.541 0l1.257 1.257 2.514-2.514-1.257-1.257c-1.676-1.678-3.909-2.604-6.284-2.604s-4.608 0.926-6.285 2.604l-3.772 3.771c-3.463 3.465-3.463 9.106 0 12.571 1.733 1.733 4.009 2.599 6.284 2.599 2.277 0 4.555-0.866 6.286-2.599l1.257-1.257-2.514-2.514-1.257 1.257c-2.080 2.075-5.463 2.078-7.543 0-2.078-2.080-2.078-5.463 0-7.543l3.772-3.771z"></path>
<path d="M16 3.429l-1.257 1.257 2.514 2.514 1.257-1.257c2.078-2.075 5.461-2.078 7.543 0 2.078 2.080 2.078 5.463 0 7.543l-3.773 3.771c-2.014 2.014-5.527 2.014-7.541 0l-1.257-1.257-2.514 2.514 1.257 1.257c1.676 1.678 3.909 2.604 6.284 2.604s4.608-0.926 6.285-2.604l3.772-3.771c3.463-3.465 3.463-9.106 0-12.571-3.467-3.467-9.108-3.465-12.571 0z"></path>
</symbol>
<symbol id="icon-email" viewBox="0 0 32 32">
<title>email</title>
<path d="M16.684 20.469c-0.201 0.156-0.447 0.241-0.701 0.241s-0.501-0.085-0.701-0.241l-15.281-13.060v18.4c0 0.303 0.12 0.594 0.335 0.808s0.505 0.335 0.808 0.335h29.714c0.303 0 0.594-0.12 0.808-0.335s0.335-0.505 0.335-0.808v-18.562l-15.316 13.222zM30.848 4.667l-14.866 12.766-14.88-12.766c0.014-0 0.027-0.001 0.041-0.001h29.705z"></path>
</symbol>
<symbol id="icon-minus" viewBox="0 0 32 32">
<title>minus</title>
<path d="M7.553 15.414c0-0.56 0.378-1.014 0.845-1.014h15.204c0.467 0 0.845 0.454 0.845 1.014s-0.378 1.014-0.845 1.014h-15.204c-0.466 0-0.845-0.454-0.845-1.014z"></path>
</symbol>
<symbol id="icon-plus" viewBox="0 0 32 32">
<title>plus</title>
<path d="M16.829 7.504c0-0.521-0.423-0.944-0.944-0.944s-0.944 0.423-0.944 0.944v7.552h-7.552c-0.521 0-0.944 0.423-0.944 0.944s0.423 0.944 0.944 0.944h7.552v7.552c0 0.521 0.423 0.944 0.944 0.944s0.944-0.423 0.944-0.944v-7.552h7.552c0.521 0 0.944-0.423 0.944-0.944s-0.423-0.944-0.944-0.944h-7.552v-7.552z"></path>
</symbol>
<symbol id="icon-print" viewBox="0 0 32 32">
<title>print</title>
<path d="M27.077 3.692v-3.077c0-0.163-0.065-0.32-0.18-0.435s-0.272-0.18-0.435-0.18h-20.923c-0.163 0-0.32 0.065-0.435 0.18s-0.18 0.272-0.18 0.435v3.077z"></path>
<path d="M27.692 4.923h-23.385c-1.142 0-2.238 0.454-3.046 1.262s-1.262 1.904-1.262 3.046v16c0 0.163 0.065 0.32 0.18 0.435s0.272 0.18 0.435 0.18h4.308v5.539c0 0.163 0.065 0.32 0.18 0.435s0.272 0.18 0.435 0.18h20.923c0.163 0 0.32-0.065 0.435-0.18s0.18-0.272 0.18-0.435v-5.539h4.308c0.163 0 0.32-0.065 0.435-0.18s0.18-0.272 0.18-0.435v-16c0-1.142-0.454-2.238-1.262-3.046s-1.903-1.262-3.046-1.262zM24 28.615c0 0.082-0.032 0.16-0.090 0.218s-0.136 0.090-0.218 0.090h-15.385c-0.082 0-0.16-0.032-0.218-0.090s-0.090-0.136-0.090-0.218v-11.692c0-0.082 0.032-0.16 0.090-0.218s0.136-0.090 0.218-0.090h15.385c0.082 0 0.16 0.032 0.218 0.090s0.090 0.136 0.090 0.218v11.692zM26.615 12.302c-0.377 0.030-0.753-0.056-1.079-0.246s-0.586-0.477-0.744-0.82c-0.159-0.343-0.208-0.726-0.142-1.098s0.245-0.715 0.512-0.982c0.267-0.267 0.61-0.446 0.982-0.512s0.755-0.017 1.098 0.142 0.629 0.418 0.82 0.744c0.191 0.326 0.277 0.703 0.246 1.079-0.035 0.437-0.225 0.847-0.535 1.158s-0.72 0.5-1.158 0.535z"></path>
</symbol>
<symbol id="icon-search" viewBox="0 0 32 32">
<title>search</title>
<path d="M31.6 28.9l-9.306-9.307c1.5-2.061 2.306-4.545 2.304-7.094 0-6.671-5.428-12.099-12.099-12.099s-12.099 5.428-12.099 12.099c0 6.671 5.428 12.099 12.099 12.099 2.549 0.002 5.033-0.804 7.094-2.304l9.307 9.306 2.7-2.7zM12.499 20.777c-1.637 0-3.238-0.485-4.6-1.395s-2.423-2.203-3.049-3.715c-0.627-1.513-0.791-3.177-0.471-4.783s1.108-3.081 2.266-4.239c1.158-1.158 2.633-1.946 4.239-2.266s3.271-0.155 4.783 0.471c1.513 0.627 2.806 1.688 3.715 3.049s1.395 2.962 1.395 4.6c-0.003 2.195-0.876 4.299-2.427 5.85s-3.656 2.425-5.85 2.427z"></path>
</symbol>
</defs>
</svg>
