<svg width="24" height="24" viewBox="0 0 24 24" fill="none" xmlns="http://www.w3.org/2000/svg">
<path d="M7.28666 11.0573C8.79733 9.54667 11.432 9.54667 12.9427 11.0573L13.8853 12L15.7707 10.1147L14.828 9.17201C13.5707 7.91334 11.896 7.21867 10.1147 7.21867C8.33333 7.21867 6.65866 7.91334 5.40133 9.17201L2.57199 12C-0.0253404 14.5987 -0.0253404 18.8293 2.57199 21.428C3.87199 22.728 5.57866 23.3773 7.28533 23.3773C8.99333 23.3773 10.7013 22.728 12 21.428L12.9427 20.4853L11.0573 18.6L10.1147 19.5427C8.55466 21.0987 6.01733 21.1013 4.45733 19.5427C2.89866 17.9827 2.89866 15.4453 4.45733 13.8853L7.28666 11.0573Z" fill="#000000"/>
<path d="M12 2.572L11.0573 3.51466L12.9427 5.4L13.8853 4.45733C15.444 2.90133 17.9813 2.89866 19.5427 4.45733C21.1013 6.01733 21.1013 8.55467 19.5427 10.1147L16.7133 12.9427C15.2027 14.4533 12.568 14.4533 11.0573 12.9427L10.1147 12L8.22934 13.8853L9.17201 14.828C10.4293 16.0867 12.104 16.7813 13.8853 16.7813C15.6667 16.7813 17.3413 16.0867 18.5987 14.828L21.428 12C24.0253 9.40133 24.0253 5.17066 21.428 2.572C18.828 -0.0280024 14.5973 -0.026669 12 2.572Z" fill="#000000"/>
</svg>
