<svg width="250" height="60" viewBox="0 0 193 45" fill="none" xmlns="http://www.w3.org/2000/svg">
<path d="M2.656 24.7046V6.44859H7.164L10.104 14.5686C10.2907 15.1099 10.468 15.6699 10.636 16.2486C10.804 16.8086 10.9813 17.3686 11.168 17.9286H11.28C11.4667 17.3686 11.6347 16.8086 11.784 16.2486C11.952 15.6699 12.1293 15.1099 12.316 14.5686L15.2 6.44859H19.68V24.7046H15.928V18.0126C15.928 17.5646 15.9467 17.0699 15.984 16.5286C16.0213 15.9873 16.068 15.4459 16.124 14.9046C16.18 14.3446 16.236 13.8033 16.292 13.2806C16.348 12.7393 16.404 12.2446 16.46 11.7966H16.348L14.864 16.1366L12.26 23.1086H9.992L7.388 16.1366L5.932 11.7966H5.82C5.876 12.2446 5.932 12.7393 5.988 13.2806C6.044 13.8033 6.1 14.3446 6.156 14.9046C6.212 15.4459 6.25867 15.9873 6.296 16.5286C6.33333 17.0699 6.352 17.5646 6.352 18.0126V24.7046H2.656ZM23.9841 24.7046V6.44859H28.1001V24.7046H23.9841ZM37.978 25.0406C36.7833 25.0406 35.5887 24.8259 34.394 24.3966C33.218 23.9486 32.1633 23.2859 31.23 22.4086L33.582 19.5806C34.2353 20.1406 34.954 20.5979 35.738 20.9526C36.5407 21.3073 37.3247 21.4846 38.09 21.4846C38.9487 21.4846 39.5833 21.3259 39.994 21.0086C40.4233 20.6913 40.638 20.2619 40.638 19.7206C40.638 19.4406 40.5727 19.1979 40.442 18.9926C40.33 18.7873 40.1527 18.6099 39.91 18.4606C39.686 18.2926 39.406 18.1433 39.07 18.0126C38.7527 17.8633 38.398 17.7046 38.006 17.5366L35.626 16.5286C35.1593 16.3419 34.702 16.0993 34.254 15.8006C33.8247 15.5019 33.4327 15.1566 33.078 14.7646C32.742 14.3539 32.4713 13.8873 32.266 13.3646C32.0607 12.8233 31.958 12.2166 31.958 11.5446C31.958 10.7979 32.1167 10.0979 32.434 9.44459C32.7513 8.77259 33.1993 8.19392 33.778 7.70859C34.3567 7.20459 35.038 6.81259 35.822 6.53259C36.6247 6.25259 37.502 6.11259 38.454 6.11259C39.518 6.11259 40.5633 6.31792 41.59 6.72859C42.6353 7.13926 43.55 7.73659 44.334 8.52059L42.234 11.1246C41.6367 10.6579 41.0393 10.3033 40.442 10.0606C39.8447 9.79926 39.182 9.66859 38.454 9.66859C37.7447 9.66859 37.1753 9.81792 36.746 10.1166C36.3353 10.3966 36.13 10.7979 36.13 11.3206C36.13 11.6006 36.1953 11.8433 36.326 12.0486C36.4753 12.2353 36.6713 12.4126 36.914 12.5806C37.1753 12.7299 37.474 12.8793 37.81 13.0286C38.146 13.1593 38.51 13.3086 38.902 13.4766L41.254 14.4286C42.374 14.8766 43.2513 15.4926 43.886 16.2766C44.5393 17.0606 44.866 18.0966 44.866 19.3846C44.866 20.1499 44.7073 20.8779 44.39 21.5686C44.0913 22.2406 43.6433 22.8379 43.046 23.3606C42.4673 23.8646 41.7487 24.2753 40.89 24.5926C40.0313 24.8913 39.0607 25.0406 37.978 25.0406ZM53.0444 25.0406C51.8497 25.0406 50.6551 24.8259 49.4604 24.3966C48.2844 23.9486 47.2297 23.2859 46.2964 22.4086L48.6484 19.5806C49.3017 20.1406 50.0204 20.5979 50.8044 20.9526C51.6071 21.3073 52.3911 21.4846 53.1564 21.4846C54.0151 21.4846 54.6497 21.3259 55.0604 21.0086C55.4897 20.6913 55.7044 20.2619 55.7044 19.7206C55.7044 19.4406 55.6391 19.1979 55.5084 18.9926C55.3964 18.7873 55.2191 18.6099 54.9764 18.4606C54.7524 18.2926 54.4724 18.1433 54.1364 18.0126C53.8191 17.8633 53.4644 17.7046 53.0724 17.5366L50.6924 16.5286C50.2257 16.3419 49.7684 16.0993 49.3204 15.8006C48.8911 15.5019 48.4991 15.1566 48.1444 14.7646C47.8084 14.3539 47.5377 13.8873 47.3324 13.3646C47.1271 12.8233 47.0244 12.2166 47.0244 11.5446C47.0244 10.7979 47.1831 10.0979 47.5004 9.44459C47.8177 8.77259 48.2657 8.19392 48.8444 7.70859C49.4231 7.20459 50.1044 6.81259 50.8884 6.53259C51.6911 6.25259 52.5684 6.11259 53.5204 6.11259C54.5844 6.11259 55.6297 6.31792 56.6564 6.72859C57.7017 7.13926 58.6164 7.73659 59.4004 8.52059L57.3004 11.1246C56.7031 10.6579 56.1057 10.3033 55.5084 10.0606C54.9111 9.79926 54.2484 9.66859 53.5204 9.66859C52.8111 9.66859 52.2417 9.81792 51.8124 10.1166C51.4017 10.3966 51.1964 10.7979 51.1964 11.3206C51.1964 11.6006 51.2617 11.8433 51.3924 12.0486C51.5417 12.2353 51.7377 12.4126 51.9804 12.5806C52.2417 12.7299 52.5404 12.8793 52.8764 13.0286C53.2124 13.1593 53.5764 13.3086 53.9684 13.4766L56.3204 14.4286C57.4404 14.8766 58.3177 15.4926 58.9524 16.2766C59.6057 17.0606 59.9324 18.0966 59.9324 19.3846C59.9324 20.1499 59.7737 20.8779 59.4564 21.5686C59.1577 22.2406 58.7097 22.8379 58.1124 23.3606C57.5337 23.8646 56.8151 24.2753 55.9564 24.5926C55.0977 24.8913 54.1271 25.0406 53.0444 25.0406ZM63.031 24.7046V6.44859H67.147V24.7046H63.031ZM71.4529 24.7046V6.44859H75.5689V21.2326H82.7929V24.7046H71.4529ZM85.9451 24.7046V6.44859H97.3691V9.92059H90.0611V13.5886H96.2771V17.0326H90.0611V21.2326H97.6491V24.7046H85.9451Z" fill="white"/>
<path d="M105.457 24.7046V8.29659H99.9129V6.33659H113.353V8.29659H107.809V24.7046H105.457ZM116.661 24.7046V6.33659H118.985V14.0366H127.525V6.33659H129.877V24.7046H127.525V16.0526H118.985V24.7046H116.661ZM134.926 24.7046V6.33659H140.666C141.6 6.33659 142.458 6.42992 143.242 6.61659C144.045 6.78459 144.726 7.07392 145.286 7.48459C145.865 7.89526 146.313 8.42726 146.63 9.08059C146.948 9.73392 147.106 10.5366 147.106 11.4886C147.106 12.9259 146.733 14.0739 145.986 14.9326C145.24 15.7913 144.232 16.3793 142.962 16.6966L147.638 24.7046H145.006L140.582 16.9486H137.25V24.7046H134.926ZM137.25 15.0446H140.33C141.768 15.0446 142.869 14.7553 143.634 14.1766C144.4 13.5793 144.782 12.6833 144.782 11.4886C144.782 10.2753 144.4 9.42592 143.634 8.94059C142.869 8.45526 141.768 8.21259 140.33 8.21259H137.25V15.0446ZM150.868 24.7046V6.33659H161.452V8.29659H153.192V14.0646H160.164V16.0526H153.192V22.7166H161.732V24.7046H150.868ZM168.797 14.4286L167.929 17.2286H173.445L172.577 14.4286C172.241 13.4019 171.924 12.3846 171.625 11.3766C171.327 10.3499 171.028 9.30459 170.729 8.24059H170.617C170.337 9.30459 170.048 10.3499 169.749 11.3766C169.451 12.3846 169.133 13.4019 168.797 14.4286ZM163.197 24.7046L169.413 6.33659H172.045L178.261 24.7046H175.769L174.033 19.1046H167.341L165.577 24.7046H163.197ZM183.141 24.7046V8.29659H177.597V6.33659H191.037V8.29659H185.493V24.7046H183.141Z" fill="#D1D2D3"/>
<path d="M19.056 40.8486C18.56 40.8486 18.104 40.7566 17.688 40.5726C17.272 40.3886 16.908 40.1246 16.596 39.7806C16.292 39.4286 16.052 39.0006 15.876 38.4966C15.708 37.9846 15.624 37.4086 15.624 36.7686C15.624 36.1366 15.712 35.5686 15.888 35.0646C16.064 34.5606 16.308 34.1326 16.62 33.7806C16.932 33.4286 17.3 33.1606 17.724 32.9766C18.148 32.7846 18.612 32.6886 19.116 32.6886C19.596 32.6886 20.016 32.7886 20.376 32.9886C20.744 33.1806 21.044 33.4046 21.276 33.6606L20.736 34.3086C20.528 34.0846 20.292 33.9046 20.028 33.7686C19.764 33.6326 19.464 33.5646 19.128 33.5646C18.752 33.5646 18.412 33.6406 18.108 33.7926C17.804 33.9366 17.544 34.1486 17.328 34.4286C17.112 34.7006 16.944 35.0326 16.824 35.4246C16.712 35.8166 16.656 36.2566 16.656 36.7446C16.656 37.2406 16.712 37.6886 16.824 38.0886C16.944 38.4806 17.108 38.8166 17.316 39.0966C17.524 39.3766 17.776 39.5926 18.072 39.7446C18.376 39.8966 18.716 39.9726 19.092 39.9726C19.476 39.9726 19.812 39.8966 20.1 39.7446C20.388 39.5846 20.66 39.3646 20.916 39.0846L21.468 39.7086C21.156 40.0686 20.804 40.3486 20.412 40.5486C20.02 40.7486 19.568 40.8486 19.056 40.8486ZM24.8265 40.8486C24.2745 40.8486 23.7625 40.7446 23.2905 40.5366C22.8185 40.3286 22.4105 40.0446 22.0665 39.6846L22.6665 38.9886C22.9465 39.2846 23.2745 39.5246 23.6505 39.7086C24.0345 39.8846 24.4305 39.9726 24.8385 39.9726C25.3585 39.9726 25.7625 39.8566 26.0505 39.6246C26.3385 39.3846 26.4825 39.0726 26.4825 38.6886C26.4825 38.4886 26.4465 38.3206 26.3745 38.1846C26.3105 38.0406 26.2185 37.9206 26.0985 37.8246C25.9865 37.7206 25.8505 37.6286 25.6905 37.5486C25.5305 37.4686 25.3585 37.3846 25.1745 37.2966L24.0465 36.8046C23.8625 36.7246 23.6745 36.6286 23.4825 36.5166C23.2905 36.4046 23.1185 36.2686 22.9665 36.1086C22.8145 35.9486 22.6905 35.7606 22.5945 35.5446C22.4985 35.3206 22.4505 35.0646 22.4505 34.7766C22.4505 34.4806 22.5105 34.2046 22.6305 33.9486C22.7585 33.6926 22.9305 33.4726 23.1465 33.2886C23.3705 33.0966 23.6305 32.9486 23.9265 32.8446C24.2305 32.7406 24.5625 32.6886 24.9225 32.6886C25.3945 32.6886 25.8305 32.7806 26.2305 32.9646C26.6305 33.1406 26.9705 33.3726 27.2505 33.6606L26.7105 34.3086C26.4705 34.0766 26.2025 33.8966 25.9065 33.7686C25.6185 33.6326 25.2905 33.5646 24.9225 33.5646C24.4825 33.5646 24.1265 33.6686 23.8545 33.8766C23.5905 34.0766 23.4585 34.3566 23.4585 34.7166C23.4585 34.9086 23.4945 35.0726 23.5665 35.2086C23.6465 35.3366 23.7505 35.4526 23.8785 35.5566C24.0065 35.6526 24.1465 35.7406 24.2985 35.8206C24.4505 35.8926 24.6065 35.9606 24.7665 36.0246L25.8825 36.5046C26.1065 36.6006 26.3185 36.7126 26.5185 36.8406C26.7185 36.9606 26.8905 37.1046 27.0345 37.2726C27.1785 37.4326 27.2905 37.6246 27.3705 37.8486C27.4585 38.0646 27.5025 38.3166 27.5025 38.6046C27.5025 38.9166 27.4385 39.2086 27.3105 39.4806C27.1905 39.7526 27.0145 39.9926 26.7825 40.2006C26.5505 40.4006 26.2705 40.5606 25.9425 40.6806C25.6145 40.7926 25.2425 40.8486 24.8265 40.8486ZM29.0527 40.7046V32.8326H30.0487V40.7046H29.0527ZM34.389 40.8486C33.837 40.8486 33.325 40.7446 32.853 40.5366C32.381 40.3286 31.973 40.0446 31.629 39.6846L32.229 38.9886C32.509 39.2846 32.837 39.5246 33.213 39.7086C33.597 39.8846 33.993 39.9726 34.401 39.9726C34.921 39.9726 35.325 39.8566 35.613 39.6246C35.901 39.3846 36.045 39.0726 36.045 38.6886C36.045 38.4886 36.009 38.3206 35.937 38.1846C35.873 38.0406 35.781 37.9206 35.661 37.8246C35.549 37.7206 35.413 37.6286 35.253 37.5486C35.093 37.4686 34.921 37.3846 34.737 37.2966L33.609 36.8046C33.425 36.7246 33.237 36.6286 33.045 36.5166C32.853 36.4046 32.681 36.2686 32.529 36.1086C32.377 35.9486 32.253 35.7606 32.157 35.5446C32.061 35.3206 32.013 35.0646 32.013 34.7766C32.013 34.4806 32.073 34.2046 32.193 33.9486C32.321 33.6926 32.493 33.4726 32.709 33.2886C32.933 33.0966 33.193 32.9486 33.489 32.8446C33.793 32.7406 34.125 32.6886 34.485 32.6886C34.957 32.6886 35.393 32.7806 35.793 32.9646C36.193 33.1406 36.533 33.3726 36.813 33.6606L36.273 34.3086C36.033 34.0766 35.765 33.8966 35.469 33.7686C35.181 33.6326 34.853 33.5646 34.485 33.5646C34.045 33.5646 33.689 33.6686 33.417 33.8766C33.153 34.0766 33.021 34.3566 33.021 34.7166C33.021 34.9086 33.057 35.0726 33.129 35.2086C33.209 35.3366 33.313 35.4526 33.441 35.5566C33.569 35.6526 33.709 35.7406 33.861 35.8206C34.013 35.8926 34.169 35.9606 34.329 36.0246L35.445 36.5046C35.669 36.6006 35.881 36.7126 36.081 36.8406C36.281 36.9606 36.453 37.1046 36.597 37.2726C36.741 37.4326 36.853 37.6246 36.933 37.8486C37.021 38.0646 37.065 38.3166 37.065 38.6046C37.065 38.9166 37.001 39.2086 36.873 39.4806C36.753 39.7526 36.577 39.9926 36.345 40.2006C36.113 40.4006 35.833 40.5606 35.505 40.6806C35.177 40.7926 34.805 40.8486 34.389 40.8486ZM41.0175 40.7046V32.8326H42.2175L43.7295 37.0326C43.8255 37.3046 43.9175 37.5806 44.0055 37.8606C44.1015 38.1326 44.1975 38.4046 44.2935 38.6766H44.3415C44.4375 38.4046 44.5255 38.1326 44.6055 37.8606C44.6935 37.5806 44.7855 37.3046 44.8815 37.0326L46.3695 32.8326H47.5815V40.7046H46.6455V36.3726C46.6455 36.0206 46.6615 35.6326 46.6935 35.2086C46.7255 34.7846 46.7535 34.3966 46.7775 34.0446H46.7295L46.1055 35.8326L44.6175 39.9126H43.9575L42.4695 35.8326L41.8455 34.0446H41.7975C41.8215 34.3966 41.8455 34.7846 41.8695 35.2086C41.9015 35.6326 41.9175 36.0206 41.9175 36.3726V40.7046H41.0175ZM49.7363 40.7046V32.8326H50.7323V40.7046H49.7363ZM55.0726 40.8486C54.5206 40.8486 54.0086 40.7446 53.5366 40.5366C53.0646 40.3286 52.6566 40.0446 52.3126 39.6846L52.9126 38.9886C53.1926 39.2846 53.5206 39.5246 53.8966 39.7086C54.2806 39.8846 54.6766 39.9726 55.0846 39.9726C55.6046 39.9726 56.0086 39.8566 56.2966 39.6246C56.5846 39.3846 56.7286 39.0726 56.7286 38.6886C56.7286 38.4886 56.6926 38.3206 56.6206 38.1846C56.5566 38.0406 56.4646 37.9206 56.3446 37.8246C56.2326 37.7206 56.0966 37.6286 55.9366 37.5486C55.7766 37.4686 55.6046 37.3846 55.4206 37.2966L54.2926 36.8046C54.1086 36.7246 53.9206 36.6286 53.7286 36.5166C53.5366 36.4046 53.3646 36.2686 53.2126 36.1086C53.0606 35.9486 52.9366 35.7606 52.8406 35.5446C52.7446 35.3206 52.6966 35.0646 52.6966 34.7766C52.6966 34.4806 52.7566 34.2046 52.8766 33.9486C53.0046 33.6926 53.1766 33.4726 53.3926 33.2886C53.6166 33.0966 53.8766 32.9486 54.1726 32.8446C54.4766 32.7406 54.8086 32.6886 55.1686 32.6886C55.6406 32.6886 56.0766 32.7806 56.4766 32.9646C56.8766 33.1406 57.2166 33.3726 57.4966 33.6606L56.9566 34.3086C56.7166 34.0766 56.4486 33.8966 56.1526 33.7686C55.8646 33.6326 55.5366 33.5646 55.1686 33.5646C54.7286 33.5646 54.3726 33.6686 54.1006 33.8766C53.8366 34.0766 53.7046 34.3566 53.7046 34.7166C53.7046 34.9086 53.7406 35.0726 53.8126 35.2086C53.8926 35.3366 53.9966 35.4526 54.1246 35.5566C54.2526 35.6526 54.3926 35.7406 54.5446 35.8206C54.6966 35.8926 54.8526 35.9606 55.0126 36.0246L56.1286 36.5046C56.3526 36.6006 56.5646 36.7126 56.7646 36.8406C56.9646 36.9606 57.1366 37.1046 57.2806 37.2726C57.4246 37.4326 57.5366 37.6246 57.6166 37.8486C57.7046 38.0646 57.7486 38.3166 57.7486 38.6046C57.7486 38.9166 57.6846 39.2086 57.5566 39.4806C57.4366 39.7526 57.2606 39.9926 57.0286 40.2006C56.7966 40.4006 56.5166 40.5606 56.1886 40.6806C55.8606 40.7926 55.4886 40.8486 55.0726 40.8486ZM61.3187 40.8486C60.7667 40.8486 60.2547 40.7446 59.7827 40.5366C59.3107 40.3286 58.9027 40.0446 58.5587 39.6846L59.1587 38.9886C59.4387 39.2846 59.7667 39.5246 60.1427 39.7086C60.5267 39.8846 60.9227 39.9726 61.3307 39.9726C61.8507 39.9726 62.2547 39.8566 62.5427 39.6246C62.8307 39.3846 62.9747 39.0726 62.9747 38.6886C62.9747 38.4886 62.9387 38.3206 62.8667 38.1846C62.8027 38.0406 62.7107 37.9206 62.5907 37.8246C62.4787 37.7206 62.3427 37.6286 62.1827 37.5486C62.0227 37.4686 61.8507 37.3846 61.6667 37.2966L60.5387 36.8046C60.3547 36.7246 60.1667 36.6286 59.9747 36.5166C59.7827 36.4046 59.6107 36.2686 59.4587 36.1086C59.3067 35.9486 59.1827 35.7606 59.0867 35.5446C58.9907 35.3206 58.9427 35.0646 58.9427 34.7766C58.9427 34.4806 59.0027 34.2046 59.1227 33.9486C59.2507 33.6926 59.4227 33.4726 59.6387 33.2886C59.8627 33.0966 60.1227 32.9486 60.4187 32.8446C60.7227 32.7406 61.0547 32.6886 61.4147 32.6886C61.8867 32.6886 62.3227 32.7806 62.7227 32.9646C63.1227 33.1406 63.4627 33.3726 63.7427 33.6606L63.2027 34.3086C62.9627 34.0766 62.6947 33.8966 62.3987 33.7686C62.1107 33.6326 61.7827 33.5646 61.4147 33.5646C60.9747 33.5646 60.6187 33.6686 60.3467 33.8766C60.0827 34.0766 59.9507 34.3566 59.9507 34.7166C59.9507 34.9086 59.9867 35.0726 60.0587 35.2086C60.1387 35.3366 60.2427 35.4526 60.3707 35.5566C60.4987 35.6526 60.6387 35.7406 60.7907 35.8206C60.9427 35.8926 61.0987 35.9606 61.2587 36.0246L62.3747 36.5046C62.5987 36.6006 62.8107 36.7126 63.0107 36.8406C63.2107 36.9606 63.3827 37.1046 63.5267 37.2726C63.6707 37.4326 63.7827 37.6246 63.8627 37.8486C63.9507 38.0646 63.9947 38.3166 63.9947 38.6046C63.9947 38.9166 63.9307 39.2086 63.8027 39.4806C63.6827 39.7526 63.5067 39.9926 63.2747 40.2006C63.0427 40.4006 62.7627 40.5606 62.4347 40.6806C62.1067 40.7926 61.7347 40.8486 61.3187 40.8486ZM65.5448 40.7046V32.8326H66.5408V40.7046H65.5448ZM68.6972 40.7046V32.8326H69.6932V39.8526H73.1372V40.7046H68.6972ZM74.5331 40.7046V32.8326H79.0691V33.6726H75.5291V36.1446H78.5171V36.9966H75.5291V39.8526H79.1891V40.7046H74.5331ZM83.2636 40.7046V32.8326H85.2316C86.4476 32.8326 87.3716 33.1686 88.0036 33.8406C88.6356 34.5126 88.9516 35.4766 88.9516 36.7326C88.9516 37.3566 88.8716 37.9166 88.7116 38.4126C88.5516 38.9006 88.3156 39.3166 88.0036 39.6606C87.6916 39.9966 87.3076 40.2566 86.8516 40.4406C86.3956 40.6166 85.8716 40.7046 85.2796 40.7046H83.2636ZM84.2596 39.8886H85.1596C86.0796 39.8886 86.7676 39.6126 87.2236 39.0606C87.6876 38.5086 87.9196 37.7326 87.9196 36.7326C87.9196 35.7326 87.6876 34.9686 87.2236 34.4406C86.7676 33.9126 86.0796 33.6486 85.1596 33.6486H84.2596V39.8886ZM90.6464 40.7046V32.8326H95.1824V33.6726H91.6424V36.1446H94.6304V36.9966H91.6424V39.8526H95.3024V40.7046H90.6464ZM96.9745 40.7046V32.8326H101.511V33.6726H97.9705V36.3366H100.971V37.1766H97.9705V40.7046H96.9745ZM102.904 40.7046V32.8326H107.44V33.6726H103.9V36.1446H106.888V36.9966H103.9V39.8526H107.56V40.7046H102.904ZM109.232 40.7046V32.8326H110.264L113.108 37.7766L113.96 39.4086H114.008C113.984 39.0086 113.956 38.5966 113.924 38.1726C113.9 37.7406 113.888 37.3166 113.888 36.9006V32.8326H114.836V40.7046H113.804L110.948 35.7486L110.096 34.1286H110.048C110.08 34.5286 110.108 34.9366 110.132 35.3526C110.164 35.7606 110.18 36.1726 110.18 36.5886V40.7046H109.232ZM119.186 40.8486C118.634 40.8486 118.122 40.7446 117.65 40.5366C117.178 40.3286 116.77 40.0446 116.426 39.6846L117.026 38.9886C117.306 39.2846 117.634 39.5246 118.01 39.7086C118.394 39.8846 118.79 39.9726 119.198 39.9726C119.718 39.9726 120.122 39.8566 120.41 39.6246C120.698 39.3846 120.842 39.0726 120.842 38.6886C120.842 38.4886 120.806 38.3206 120.734 38.1846C120.67 38.0406 120.578 37.9206 120.458 37.8246C120.346 37.7206 120.21 37.6286 120.05 37.5486C119.89 37.4686 119.718 37.3846 119.534 37.2966L118.406 36.8046C118.222 36.7246 118.034 36.6286 117.842 36.5166C117.65 36.4046 117.478 36.2686 117.326 36.1086C117.174 35.9486 117.05 35.7606 116.954 35.5446C116.858 35.3206 116.81 35.0646 116.81 34.7766C116.81 34.4806 116.87 34.2046 116.99 33.9486C117.118 33.6926 117.29 33.4726 117.506 33.2886C117.73 33.0966 117.99 32.9486 118.286 32.8446C118.59 32.7406 118.922 32.6886 119.282 32.6886C119.754 32.6886 120.19 32.7806 120.59 32.9646C120.99 33.1406 121.33 33.3726 121.61 33.6606L121.07 34.3086C120.83 34.0766 120.562 33.8966 120.266 33.7686C119.978 33.6326 119.65 33.5646 119.282 33.5646C118.842 33.5646 118.486 33.6686 118.214 33.8766C117.95 34.0766 117.818 34.3566 117.818 34.7166C117.818 34.9086 117.854 35.0726 117.926 35.2086C118.006 35.3366 118.11 35.4526 118.238 35.5566C118.366 35.6526 118.506 35.7406 118.658 35.8206C118.81 35.8926 118.966 35.9606 119.126 36.0246L120.242 36.5046C120.466 36.6006 120.678 36.7126 120.878 36.8406C121.078 36.9606 121.25 37.1046 121.394 37.2726C121.538 37.4326 121.65 37.6246 121.73 37.8486C121.818 38.0646 121.862 38.3166 121.862 38.6046C121.862 38.9166 121.798 39.2086 121.67 39.4806C121.55 39.7526 121.374 39.9926 121.142 40.2006C120.91 40.4006 120.63 40.5606 120.302 40.6806C119.974 40.7926 119.602 40.8486 119.186 40.8486ZM123.412 40.7046V32.8326H127.948V33.6726H124.408V36.1446H127.396V36.9966H124.408V39.8526H128.068V40.7046H123.412ZM132.143 40.7046V32.8326H134.387C134.827 32.8326 135.227 32.8726 135.587 32.9526C135.955 33.0326 136.267 33.1646 136.523 33.3486C136.779 33.5246 136.979 33.7606 137.122 34.0566C137.266 34.3526 137.339 34.7166 137.339 35.1486C137.339 35.5646 137.266 35.9246 137.122 36.2286C136.987 36.5326 136.791 36.7846 136.535 36.9846C136.279 37.1846 135.971 37.3366 135.611 37.4406C135.259 37.5366 134.867 37.5846 134.435 37.5846H133.139V40.7046H132.143ZM133.139 36.7686H134.315C135.003 36.7686 135.511 36.6406 135.839 36.3846C136.175 36.1206 136.343 35.7086 136.343 35.1486C136.343 34.5806 136.167 34.1886 135.815 33.9726C135.471 33.7486 134.955 33.6366 134.267 33.6366H133.139V36.7686ZM138.939 40.7046V32.8326H141.399C141.799 32.8326 142.167 32.8726 142.503 32.9526C142.847 33.0246 143.139 33.1486 143.379 33.3246C143.627 33.5006 143.819 33.7286 143.955 34.0086C144.091 34.2886 144.159 34.6326 144.159 35.0406C144.159 35.6566 143.999 36.1486 143.679 36.5166C143.359 36.8846 142.927 37.1366 142.383 37.2726L144.387 40.7046H143.259L141.363 37.3806H139.935V40.7046H138.939ZM139.935 36.5646H141.255C141.871 36.5646 142.343 36.4406 142.671 36.1926C142.999 35.9366 143.163 35.5526 143.163 35.0406C143.163 34.5206 142.999 34.1566 142.671 33.9486C142.343 33.7406 141.871 33.6366 141.255 33.6366H139.935V36.5646ZM148.675 40.8486C148.179 40.8486 147.723 40.7526 147.307 40.5606C146.899 40.3686 146.547 40.0966 146.251 39.7446C145.955 39.3846 145.723 38.9526 145.555 38.4486C145.395 37.9366 145.315 37.3646 145.315 36.7326C145.315 36.1006 145.395 35.5366 145.555 35.0406C145.723 34.5366 145.955 34.1126 146.251 33.7686C146.547 33.4166 146.899 33.1486 147.307 32.9646C147.723 32.7806 148.179 32.6886 148.675 32.6886C149.171 32.6886 149.623 32.7846 150.031 32.9766C150.447 33.1606 150.803 33.4286 151.099 33.7806C151.403 34.1246 151.635 34.5486 151.795 35.0526C151.963 35.5486 152.047 36.1086 152.047 36.7326C152.047 37.3646 151.963 37.9366 151.795 38.4486C151.635 38.9526 151.403 39.3846 151.099 39.7446C150.803 40.0966 150.447 40.3686 150.031 40.5606C149.623 40.7526 149.171 40.8486 148.675 40.8486ZM148.675 39.9726C149.027 39.9726 149.343 39.8966 149.623 39.7446C149.911 39.5926 150.155 39.3766 150.355 39.0966C150.563 38.8086 150.723 38.4686 150.835 38.0766C150.947 37.6766 151.003 37.2286 151.003 36.7326C151.003 36.2446 150.947 35.8046 150.835 35.4126C150.723 35.0206 150.563 34.6886 150.355 34.4166C150.155 34.1446 149.911 33.9366 149.623 33.7926C149.343 33.6406 149.027 33.5646 148.675 33.5646C148.323 33.5646 148.003 33.6406 147.715 33.7926C147.435 33.9366 147.191 34.1446 146.983 34.4166C146.783 34.6886 146.627 35.0206 146.515 35.4126C146.403 35.8046 146.347 36.2446 146.347 36.7326C146.347 37.2286 146.403 37.6766 146.515 38.0766C146.627 38.4686 146.783 38.8086 146.983 39.0966C147.191 39.3766 147.435 39.5926 147.715 39.7446C148.003 39.8966 148.323 39.9726 148.675 39.9726ZM154.724 40.8486C153.74 40.8486 153.016 40.4286 152.552 39.5886L153.272 39.0846C153.448 39.3966 153.648 39.6246 153.872 39.7686C154.096 39.9046 154.348 39.9726 154.628 39.9726C155.052 39.9726 155.368 39.8446 155.576 39.5886C155.784 39.3246 155.888 38.8926 155.888 38.2926V32.8326H156.896V38.3886C156.896 38.7246 156.852 39.0446 156.764 39.3486C156.684 39.6446 156.556 39.9046 156.38 40.1286C156.212 40.3526 155.988 40.5286 155.708 40.6566C155.436 40.7846 155.108 40.8486 154.724 40.8486ZM159.025 40.7046V32.8326H163.561V33.6726H160.021V36.1446H163.009V36.9966H160.021V39.8526H163.681V40.7046H159.025ZM168.329 40.8486C167.833 40.8486 167.377 40.7566 166.961 40.5726C166.545 40.3886 166.181 40.1246 165.869 39.7806C165.565 39.4286 165.325 39.0006 165.149 38.4966C164.981 37.9846 164.897 37.4086 164.897 36.7686C164.897 36.1366 164.985 35.5686 165.161 35.0646C165.337 34.5606 165.581 34.1326 165.893 33.7806C166.205 33.4286 166.573 33.1606 166.997 32.9766C167.421 32.7846 167.885 32.6886 168.389 32.6886C168.869 32.6886 169.289 32.7886 169.649 32.9886C170.017 33.1806 170.317 33.4046 170.549 33.6606L170.009 34.3086C169.801 34.0846 169.565 33.9046 169.301 33.7686C169.037 33.6326 168.737 33.5646 168.401 33.5646C168.025 33.5646 167.685 33.6406 167.381 33.7926C167.077 33.9366 166.817 34.1486 166.601 34.4286C166.385 34.7006 166.217 35.0326 166.097 35.4246C165.985 35.8166 165.929 36.2566 165.929 36.7446C165.929 37.2406 165.985 37.6886 166.097 38.0886C166.217 38.4806 166.381 38.8166 166.589 39.0966C166.797 39.3766 167.049 39.5926 167.345 39.7446C167.649 39.8966 167.989 39.9726 168.365 39.9726C168.749 39.9726 169.085 39.8966 169.373 39.7446C169.661 39.5846 169.933 39.3646 170.189 39.0846L170.741 39.7086C170.429 40.0686 170.077 40.3486 169.685 40.5486C169.293 40.7486 168.841 40.8486 168.329 40.8486ZM173.63 40.7046V33.6726H171.254V32.8326H177.014V33.6726H174.638V40.7046H173.63Z" fill="white" fill-opacity="0.55"/>
</svg>
