<svg id="Layer_1" data-name="Layer 1" xmlns="http://www.w3.org/2000/svg" width="4.81in" height="0.42in" viewBox="0 0 346.66 29.98"><title>MissileDefense_white</title><line x1="75.46" y1="0.5" x2="75.46" y2="29.48" fill="none" stroke="#fff" stroke-linecap="round"/><line x1="226.21" y1="0.5" x2="226.21" y2="29.48" fill="none" stroke="#fff" stroke-linecap="round"/><path d="M130.44,45.88a2.35,2.35,0,0,1-.92.64,3.18,3.18,0,0,1-1.19.22,3.52,3.52,0,0,1-1.12-.18,2.39,2.39,0,0,1-.94-.59,2.91,2.91,0,0,1-.65-1.07,4.65,4.65,0,0,1-.24-1.61,4,4,0,0,1,.23-1.39,3.16,3.16,0,0,1,.62-1,2.69,2.69,0,0,1,.93-.66,2.86,2.86,0,0,1,1.15-.23h1.9c.1,0,.14,0,.13.11l-.08.65a.15.15,0,0,1-.06.1.12.12,0,0,1-.11,0l-.38-.13-.36-.1-.44-.06-.61,0a1.24,1.24,0,0,0-1.13.7,4.29,4.29,0,0,0-.4,2.08,5.2,5.2,0,0,0,.15,1.36,2.41,2.41,0,0,0,.41.87,1.46,1.46,0,0,0,.6.46,1.93,1.93,0,0,0,.73.14,1.53,1.53,0,0,0,.72-.21,3.5,3.5,0,0,0,.67-.46c.05,0,.09,0,.11,0l.28.31A.07.07,0,0,1,130.44,45.88Z" transform="translate(-37.34 -33.8)" fill="#fff"/><path d="M136.41,46.59l-.12,0h-4.13c-.1,0-.15,0-.15-.13V40.11c0-.09,0-.13.15-.13h4l.12,0a.09.09,0,0,1,0,.09v.52a.08.08,0,0,1,0,.09.19.19,0,0,1-.12,0l-.66-.08-.57-.06-.51,0h-.88a.27.27,0,0,0-.19.07.24.24,0,0,0-.08.18v2a.07.07,0,0,0,.08.08l2-.05c.07,0,.11,0,.11.08v.52c0,.05,0,.08-.11.08l-2-.05a.07.07,0,0,0-.08.08v2.25a.27.27,0,0,0,.27.27h.88l.53,0,.62-.07.72-.11a.21.21,0,0,1,.12,0,.09.09,0,0,1,0,.09v.56A.09.09,0,0,1,136.41,46.59Z" transform="translate(-37.34 -33.8)" fill="#fff"/><path d="M143.2,44.84v1.78s0,.08-.09.1a.64.64,0,0,1-.19,0h-.2a.26.26,0,0,1-.12,0l-3.54-4.84s0,0-.08,0a.07.07,0,0,0,0,.07l.13,4.52a.42.42,0,0,1,0,.13s0,0-.09,0h-.78q-.12,0-.12-.18l.12-4.68,0-1.64c0-.09,0-.13.14-.13h.62a.22.22,0,0,1,.19.09l3.12,4.25a.12.12,0,0,0,.13.06.09.09,0,0,0,.07-.1l-.09-4.12a.42.42,0,0,1,0-.13s0,0,.09,0h.73c.05,0,.08,0,.09,0a.41.41,0,0,1,0,.13Z" transform="translate(-37.34 -33.8)" fill="#fff"/><path d="M150,40.58q0,.11-.14.1l-.63-.07-.55,0-.5,0a.15.15,0,0,0-.11.06.21.21,0,0,0,0,.14v5.73c0,.09,0,.13-.14.13h-1c-.1,0-.14,0-.14-.13V40.74a.21.21,0,0,0,0-.14.14.14,0,0,0-.1-.06l-.5,0-.55,0-.63.07q-.13,0-.14-.1l0-.49a.07.07,0,0,1,0-.09l.13,0h4.93l.13,0a.07.07,0,0,1,0,.09Z" transform="translate(-37.34 -33.8)" fill="#fff"/><path d="M156,46.59l-.12,0h-4.13c-.1,0-.14,0-.14-.13V40.11c0-.09,0-.13.14-.13h4l.12,0a.09.09,0,0,1,0,.09v.52a.08.08,0,0,1,0,.09.19.19,0,0,1-.12,0l-.66-.08-.58-.06-.51,0h-.88a.27.27,0,0,0-.19.07.24.24,0,0,0-.08.18v2a.07.07,0,0,0,.08.08l2-.05c.07,0,.11,0,.11.08v.52c0,.05,0,.08-.11.08l-2-.05a.07.07,0,0,0-.08.08v2.25a.27.27,0,0,0,.26.27H154l.53,0,.62-.07.72-.11a.21.21,0,0,1,.12,0,.09.09,0,0,1,0,.09v.56A.09.09,0,0,1,156,46.59Z" transform="translate(-37.34 -33.8)" fill="#fff"/><path d="M162.94,46.48s0,.07,0,.09a.14.14,0,0,1-.11,0h-1.23a.14.14,0,0,1-.11,0l-.08-.09L160,43.95q-.24-.44-.57-.44h-.41a.24.24,0,0,0-.14,0,.15.15,0,0,0-.07.13v2.79c0,.09,0,.13-.14.13h-1c-.1,0-.14,0-.14-.13V40.11a.23.23,0,0,1,0-.1s0,0,.09,0h2.88a2,2,0,0,1,.69.12,1.75,1.75,0,0,1,.56.33,1.56,1.56,0,0,1,.38.5,1.42,1.42,0,0,1,.14.63,1.7,1.7,0,0,1-.44,1.18,2.1,2.1,0,0,1-1.14.64c-.07,0-.08,0,0,.09a1.32,1.32,0,0,1,.16.17l.26.35,1.45,2.08ZM161,41.62a1.23,1.23,0,0,0-.31-.87,1.09,1.09,0,0,0-.83-.34h-.72a.31.31,0,0,0-.2.07.23.23,0,0,0-.09.18v2.21a.18.18,0,0,0,.07.14.21.21,0,0,0,.14.06h.38a1.85,1.85,0,0,0,1.16-.33A1.35,1.35,0,0,0,161,41.62Z" transform="translate(-37.34 -33.8)" fill="#fff"/><path d="M171.88,40.7a.19.19,0,0,1-.12,0l-.73-.08-.57-.06-.44,0h-.77a.27.27,0,0,0-.19.07.24.24,0,0,0-.08.18v2a.07.07,0,0,0,.08.08l1.89-.06c.07,0,.11,0,.11.08v.52q0,.08-.11.08L169,43.44a.07.07,0,0,0-.08.08l0,3c0,.09,0,.13-.14.13h-1c-.1,0-.14,0-.14-.13V40.11c0-.09,0-.13.14-.13h3.89l.12,0a.09.09,0,0,1,0,.09v.52A.08.08,0,0,1,171.88,40.7Z" transform="translate(-37.34 -33.8)" fill="#fff"/><path d="M178.75,43.26a5.63,5.63,0,0,1-.14,1.26,3.16,3.16,0,0,1-.49,1.12,2.57,2.57,0,0,1-.9.8,2.87,2.87,0,0,1-1.39.3,3.05,3.05,0,0,1-1.39-.28,2.35,2.35,0,0,1-.88-.76,3,3,0,0,1-.46-1.09,6.06,6.06,0,0,1-.13-1.28,5.63,5.63,0,0,1,.14-1.26,3.24,3.24,0,0,1,.48-1.12,2.53,2.53,0,0,1,.89-.79,2.88,2.88,0,0,1,1.39-.3,3.09,3.09,0,0,1,1.4.28,2.36,2.36,0,0,1,.89.76,3,3,0,0,1,.46,1.09A6.07,6.07,0,0,1,178.75,43.26Zm-1.34.18q0-.45,0-1a4.29,4.29,0,0,0-.19-1,1.93,1.93,0,0,0-.48-.79,1.22,1.22,0,0,0-.89-.31,1.18,1.18,0,0,0-.8.26,1.64,1.64,0,0,0-.46.68,3.6,3.6,0,0,0-.21.91q0,.5,0,1t0,1a3.93,3.93,0,0,0,.19,1,2,2,0,0,0,.48.79,1.23,1.23,0,0,0,.9.31,1.18,1.18,0,0,0,.8-.26,1.64,1.64,0,0,0,.46-.68,3.59,3.59,0,0,0,.21-.91C177.4,44.08,177.41,43.75,177.41,43.44Z" transform="translate(-37.34 -33.8)" fill="#fff"/><path d="M185.94,46.48s0,.07,0,.09a.14.14,0,0,1-.11,0h-1.23a.14.14,0,0,1-.11,0l-.08-.09L183,43.95q-.24-.44-.57-.44h-.41a.24.24,0,0,0-.14,0,.15.15,0,0,0-.07.13v2.79c0,.09,0,.13-.14.13h-1c-.1,0-.14,0-.14-.13V40.11a.23.23,0,0,1,0-.1s0,0,.09,0h2.88a2,2,0,0,1,.69.12,1.75,1.75,0,0,1,.56.33,1.56,1.56,0,0,1,.38.5,1.42,1.42,0,0,1,.14.63,1.7,1.7,0,0,1-.44,1.18,2.1,2.1,0,0,1-1.14.64c-.07,0-.08,0,0,.09a1.32,1.32,0,0,1,.16.17l.26.35,1.45,2.08ZM184,41.62a1.23,1.23,0,0,0-.31-.87,1.09,1.09,0,0,0-.83-.34h-.72a.31.31,0,0,0-.2.07.23.23,0,0,0-.09.18v2.21a.18.18,0,0,0,.07.14.21.21,0,0,0,.14.06h.38a1.85,1.85,0,0,0,1.16-.33A1.35,1.35,0,0,0,184,41.62Z" transform="translate(-37.34 -33.8)" fill="#fff"/><path d="M195.22,44.85a1.9,1.9,0,0,1-.18.87,1.58,1.58,0,0,1-.5.59,2.2,2.2,0,0,1-.76.33,4.19,4.19,0,0,1-1,.1,5.19,5.19,0,0,1-1.31-.14,7.67,7.67,0,0,1-1-.31.11.11,0,0,1-.07-.08.17.17,0,0,1,0-.11l.2-.74s0-.07.08-.07a.16.16,0,0,1,.11.06,2.93,2.93,0,0,0,.87.6,2.71,2.71,0,0,0,1.16.25,1.36,1.36,0,0,0,.46-.08,1.37,1.37,0,0,0,.41-.23,1.25,1.25,0,0,0,.3-.35,1,1,0,0,0-.16-1.14,2.43,2.43,0,0,0-.68-.43q-.41-.18-.89-.34a4.47,4.47,0,0,1-.89-.4,2.29,2.29,0,0,1-.68-.62,1.65,1.65,0,0,1-.28-1,1.61,1.61,0,0,1,.53-1.29,2.17,2.17,0,0,1,1.47-.46,8.86,8.86,0,0,1,1.33.09q.57.09,1,.11a.07.07,0,0,1,.07,0,.18.18,0,0,1,0,.1l-.15.74c0,.09-.08.11-.18.06l-.36-.21a2.92,2.92,0,0,0-.45-.2,4,4,0,0,0-.55-.15,3.44,3.44,0,0,0-.68-.06,1.11,1.11,0,0,0-.67.22.72.72,0,0,0-.3.62.9.9,0,0,0,.28.7,2.41,2.41,0,0,0,.68.43c.27.12.57.23.89.34a4,4,0,0,1,.89.42,2.33,2.33,0,0,1,.69.67A1.93,1.93,0,0,1,195.22,44.85Z" transform="translate(-37.34 -33.8)" fill="#fff"/><path d="M201.68,40.58q0,.11-.14.1l-.63-.07-.55,0-.5,0a.15.15,0,0,0-.11.06.21.21,0,0,0,0,.14v5.73c0,.09,0,.13-.14.13h-1c-.1,0-.14,0-.14-.13V40.74a.21.21,0,0,0,0-.14.15.15,0,0,0-.11-.06l-.5,0-.55,0-.63.07q-.13,0-.14-.1l0-.49a.07.07,0,0,1,0-.09l.13,0h4.93l.13,0a.07.07,0,0,1,0,.09Z" transform="translate(-37.34 -33.8)" fill="#fff"/><path d="M208.56,46.48s0,.07,0,.09a.14.14,0,0,1-.11,0h-1.23a.14.14,0,0,1-.11,0l-.08-.09-1.38-2.53q-.24-.44-.57-.44h-.41a.24.24,0,0,0-.14,0,.15.15,0,0,0-.07.13v2.79c0,.09,0,.13-.14.13h-1c-.1,0-.14,0-.14-.13V40.11a.23.23,0,0,1,0-.1s0,0,.09,0h2.88a2,2,0,0,1,.69.12,1.75,1.75,0,0,1,.56.33,1.56,1.56,0,0,1,.38.5,1.42,1.42,0,0,1,.14.63,1.7,1.7,0,0,1-.44,1.18,2.1,2.1,0,0,1-1.14.64c-.07,0-.08,0,0,.09a1.32,1.32,0,0,1,.16.17l.26.35,1.45,2.08Zm-1.92-4.86a1.23,1.23,0,0,0-.31-.87,1.09,1.09,0,0,0-.83-.34h-.72a.31.31,0,0,0-.2.07.23.23,0,0,0-.09.18v2.21a.18.18,0,0,0,.07.14.21.21,0,0,0,.14.06h.38a1.85,1.85,0,0,0,1.16-.33A1.35,1.35,0,0,0,206.64,41.62Z" transform="translate(-37.34 -33.8)" fill="#fff"/><path d="M215.83,46.48c.05.09,0,.13-.09.13h-1.18a.19.19,0,0,1-.2-.13l-.1-.28-.09-.24-.08-.23-.35-.94a.13.13,0,0,0-.13-.09h-2.05a.13.13,0,0,0-.13.09l-.54,1.7a.17.17,0,0,1-.18.12h-.77c-.05,0-.08,0-.09,0a.18.18,0,0,1,0-.12L212.31,40s.06-.06.15-.08a1.26,1.26,0,0,1,.27,0l.27,0q.13,0,.15.08l2.31,5.71.1.23.12.24Zm-3.23-4.81s0,0-.05,0,0,0-.06,0l-.85,2.45a.06.06,0,0,0,0,.08.09.09,0,0,0,.07,0h1.75c.07,0,.1,0,.07-.11Z" transform="translate(-37.34 -33.8)" fill="#fff"/><path d="M221.31,40.58q0,.11-.14.1l-.63-.07-.55,0-.5,0a.15.15,0,0,0-.11.06.21.21,0,0,0,0,.14v5.73c0,.09,0,.13-.14.13h-1c-.1,0-.14,0-.14-.13V40.74a.21.21,0,0,0,0-.14.15.15,0,0,0-.11-.06l-.5,0-.55,0-.63.07q-.13,0-.14-.1l0-.49a.07.07,0,0,1,0-.09l.13,0h4.93l.13,0a.07.07,0,0,1,0,.09Z" transform="translate(-37.34 -33.8)" fill="#fff"/><path d="M227.24,46.59l-.12,0H223c-.1,0-.14,0-.14-.13V40.11c0-.09,0-.13.14-.13h4l.12,0a.09.09,0,0,1,0,.09v.52a.08.08,0,0,1,0,.09.19.19,0,0,1-.12,0l-.66-.08-.58-.06-.51,0h-.88a.27.27,0,0,0-.19.07.24.24,0,0,0-.08.18v2a.07.07,0,0,0,.08.08l2-.05c.07,0,.11,0,.11.08v.52c0,.05,0,.08-.11.08l-2-.05a.07.07,0,0,0-.08.08v2.25a.27.27,0,0,0,.26.27h.88l.53,0,.62-.07.72-.11a.21.21,0,0,1,.12,0,.09.09,0,0,1,0,.09v.56A.09.09,0,0,1,227.24,46.59Z" transform="translate(-37.34 -33.8)" fill="#fff"/><path d="M233.83,46.59a.2.2,0,0,1-.12,0,.23.23,0,0,1-.12,0l-.13-.1-.17-.15a.1.1,0,0,0-.1,0l-.1,0a3.51,3.51,0,0,1-.75.28,3.79,3.79,0,0,1-1,.12,3.52,3.52,0,0,1-1.12-.18,2.43,2.43,0,0,1-.94-.58,2.85,2.85,0,0,1-.65-1.06,4.66,4.66,0,0,1-.24-1.61,4,4,0,0,1,.23-1.39,3.13,3.13,0,0,1,.62-1,2.69,2.69,0,0,1,.93-.66,2.86,2.86,0,0,1,1.15-.23h1.9c.1,0,.14,0,.13.11l-.08.65a.15.15,0,0,1-.06.1.12.12,0,0,1-.11,0l-.38-.13-.37-.1-.44-.06-.61,0a1.26,1.26,0,0,0-1.14.7,4.19,4.19,0,0,0-.41,2.08,5.07,5.07,0,0,0,.16,1.36,2.46,2.46,0,0,0,.41.87A1.47,1.47,0,0,0,231,46a2,2,0,0,0,.73.14,1,1,0,0,0,.31-.05,1.46,1.46,0,0,0,.34-.15,1.11,1.11,0,0,0,.27-.23.42.42,0,0,0,.1-.27s0-.13,0-.32,0-.4,0-.62,0-.55-.06-.87a.7.7,0,0,1,0-.12.44.44,0,0,1,0-.09v-.05c0-.1,0-.15.14-.15h1c.06,0,.09,0,.09.08v3.18A.13.13,0,0,1,233.83,46.59Z" transform="translate(-37.34 -33.8)" fill="#fff"/><path d="M236.95,46.61h-1c-.1,0-.14,0-.14-.13V40.11c0-.09,0-.13.14-.13h1c.09,0,.14,0,.14.13v6.36C237.09,46.57,237,46.61,236.95,46.61Z" transform="translate(-37.34 -33.8)" fill="#fff"/><path d="M244,45.88a2.35,2.35,0,0,1-.92.64,3.18,3.18,0,0,1-1.19.22,3.52,3.52,0,0,1-1.12-.18,2.39,2.39,0,0,1-.94-.59,2.89,2.89,0,0,1-.65-1.07,4.65,4.65,0,0,1-.24-1.61,4,4,0,0,1,.23-1.39,3.14,3.14,0,0,1,.62-1,2.69,2.69,0,0,1,.93-.66,2.86,2.86,0,0,1,1.15-.23h1.9c.1,0,.14,0,.13.11l-.08.65a.15.15,0,0,1-.06.1.12.12,0,0,1-.11,0l-.38-.13-.37-.1-.44-.06-.61,0a1.24,1.24,0,0,0-1.13.7,4.29,4.29,0,0,0-.4,2.08,5.2,5.2,0,0,0,.15,1.36,2.42,2.42,0,0,0,.41.87,1.46,1.46,0,0,0,.6.46,1.93,1.93,0,0,0,.73.14,1.53,1.53,0,0,0,.72-.21,3.54,3.54,0,0,0,.67-.46c.05,0,.09,0,.11,0l.28.31A.07.07,0,0,1,244,45.88Z" transform="translate(-37.34 -33.8)" fill="#fff"/><path d="M252.74,43.85a.23.23,0,0,1,0,.08s0,0-.08,0h-.81v2.54a.11.11,0,0,1,0,.09.14.14,0,0,1-.09,0h-2.49a2.13,2.13,0,0,1-.79-.13,1.6,1.6,0,0,1-.55-.35,1.3,1.3,0,0,1-.31-.49,1.65,1.65,0,0,1-.1-.56,1.32,1.32,0,0,1,.09-.49,1.56,1.56,0,0,1,.27-.45,1.79,1.79,0,0,1,.41-.35,1.65,1.65,0,0,1,.51-.21,1.25,1.25,0,0,1-.61-.5,1.36,1.36,0,0,1-.2-.71,1.21,1.21,0,0,1,.45-1,2,2,0,0,1,1.21-.33h1c.11,0,.16,0,.15.12l0,.42q0,.14-.14.1l-.21-.12-.2-.08a.69.69,0,0,0-.21,0,.85.85,0,0,0-.63.23,1.09,1.09,0,0,0-.23.78,1.2,1.2,0,0,0,.25.78.88.88,0,0,0,.72.31h.77v-.71c0-.1,0-.14.14-.12l.77.09.09,0a.08.08,0,0,1,0,.08v.63h.77c.08,0,.12,0,.12.11Zm-1.94.1h-1a1.07,1.07,0,0,0-.45.09.94.94,0,0,0-.33.24,1.16,1.16,0,0,0-.2.35,1.12,1.12,0,0,0-.07.39,1.52,1.52,0,0,0,.07.45,1.34,1.34,0,0,0,.19.39.89.89,0,0,0,.3.27.8.8,0,0,0,.4.1,6,6,0,0,0,.65,0,3.6,3.6,0,0,0,.5-.09Z" transform="translate(-37.34 -33.8)" fill="#fff"/><path d="M126.72,59.5h-1c-.1,0-.14,0-.14-.13V53c0-.09,0-.13.14-.13h1c.1,0,.14,0,.14.13v6.36C126.86,59.45,126.82,59.5,126.72,59.5Z" transform="translate(-37.34 -33.8)" fill="#fff"/><path d="M134.1,57.73v1.78s0,.08-.09.1a.64.64,0,0,1-.19,0h-.2a.24.24,0,0,1-.12,0L130,54.77a.07.07,0,0,0-.08,0,.07.07,0,0,0,0,.07l.13,4.52a.42.42,0,0,1,0,.13s0,0-.09,0h-.78c-.08,0-.12-.06-.12-.18l.12-4.68L129,53c0-.09,0-.13.14-.13h.62A.22.22,0,0,1,130,53l3.12,4.25a.12.12,0,0,0,.13.06.09.09,0,0,0,.07-.11L133.21,53a.42.42,0,0,1,0-.13s0,0,.09,0h.73q.08,0,.09,0a.4.4,0,0,1,0,.13Z" transform="translate(-37.34 -33.8)" fill="#fff"/><path d="M140.92,53.47q0,.11-.14.1l-.63-.07-.55,0-.5,0a.14.14,0,0,0-.1.05.21.21,0,0,0,0,.14v5.73c0,.09,0,.13-.14.13h-1c-.1,0-.14,0-.14-.13V53.63a.21.21,0,0,0,0-.14.14.14,0,0,0-.1-.05l-.5,0-.55,0-.63.07q-.13,0-.14-.1l0-.49a.07.07,0,0,1,0-.09l.13,0h4.93l.13,0a.07.07,0,0,1,0,.09Z" transform="translate(-37.34 -33.8)" fill="#fff"/><path d="M146.86,59.48l-.12,0h-4.13c-.1,0-.15,0-.15-.13V53c0-.09,0-.13.15-.13h4l.12,0a.09.09,0,0,1,0,.09v.52a.09.09,0,0,1,0,.09.2.2,0,0,1-.12,0l-.66-.08-.57-.06-.51,0H144a.26.26,0,0,0-.19.07.24.24,0,0,0-.08.18v2a.07.07,0,0,0,.08.08l2-.06c.07,0,.11,0,.11.08v.52c0,.05,0,.08-.11.08l-2-.05a.07.07,0,0,0-.08.08v2.25a.26.26,0,0,0,.27.26h.88l.53,0,.62-.07.72-.11a.21.21,0,0,1,.12,0,.09.09,0,0,1,0,.09v.56A.09.09,0,0,1,146.86,59.48Z" transform="translate(-37.34 -33.8)" fill="#fff"/><path d="M153.83,59.37s0,.07,0,.09a.14.14,0,0,1-.11,0H152.5a.14.14,0,0,1-.11,0l-.08-.09-1.38-2.53q-.24-.44-.57-.44H150a.24.24,0,0,0-.14,0,.15.15,0,0,0-.07.13v2.79c0,.09,0,.13-.14.13h-1c-.1,0-.14,0-.14-.13V53a.24.24,0,0,1,0-.1s0,0,.09,0h2.88a2,2,0,0,1,.69.12,1.73,1.73,0,0,1,.56.33,1.56,1.56,0,0,1,.38.5,1.43,1.43,0,0,1,.14.63,1.7,1.7,0,0,1-.44,1.18,2.1,2.1,0,0,1-1.14.64c-.07,0-.08,0,0,.09a1.3,1.3,0,0,1,.16.17l.26.35,1.45,2.08Zm-1.92-4.86a1.23,1.23,0,0,0-.31-.87,1.09,1.09,0,0,0-.83-.34H150a.31.31,0,0,0-.2.07.23.23,0,0,0-.09.18v2.21a.19.19,0,0,0,.07.14A.21.21,0,0,0,150,56h.38a1.84,1.84,0,0,0,1.16-.33A1.35,1.35,0,0,0,151.91,54.51Z" transform="translate(-37.34 -33.8)" fill="#fff"/><path d="M160.56,57.73v1.78s0,.08-.09.1a.64.64,0,0,1-.19,0h-.2a.25.25,0,0,1-.12,0l-3.53-4.84a.07.07,0,0,0-.08,0,.07.07,0,0,0,0,.07l.13,4.52a.42.42,0,0,1,0,.13s0,0-.09,0h-.79c-.08,0-.12-.06-.12-.18l.12-4.68,0-1.63c0-.09,0-.13.14-.13h.62a.22.22,0,0,1,.19.09l3.12,4.25a.12.12,0,0,0,.13.06.09.09,0,0,0,.07-.11L159.68,53a.39.39,0,0,1,0-.13s0,0,.09,0h.73c.05,0,.08,0,.09,0a.42.42,0,0,1,0,.13Z" transform="translate(-37.34 -33.8)" fill="#fff"/><path d="M168.11,59.37c.05.09,0,.13-.09.13h-1.18a.19.19,0,0,1-.2-.13l-.1-.28-.09-.24-.08-.23-.35-.94a.13.13,0,0,0-.13-.09h-2.05a.13.13,0,0,0-.13.09l-.54,1.7a.17.17,0,0,1-.18.12h-.77q-.08,0-.09,0a.18.18,0,0,1,0-.12l2.47-6.42s.06-.06.15-.08l.27,0,.27,0c.08,0,.13,0,.15.08l2.31,5.71.1.23.12.24Zm-3.23-4.8s0,0-.05,0,0,0-.06,0L163.93,57a.07.07,0,0,0,0,.08.09.09,0,0,0,.07,0h1.75c.07,0,.1,0,.07-.11Z" transform="translate(-37.34 -33.8)" fill="#fff"/><path d="M173.59,53.47q0,.11-.14.1l-.63-.07-.55,0-.5,0a.14.14,0,0,0-.11.05.21.21,0,0,0,0,.14v5.73c0,.09,0,.13-.14.13h-1c-.1,0-.14,0-.14-.13V53.63a.21.21,0,0,0,0-.14.14.14,0,0,0-.11-.05l-.5,0-.55,0-.63.07q-.13,0-.14-.1l0-.49a.07.07,0,0,1,0-.09l.13,0h4.93l.13,0a.07.07,0,0,1,0,.09Z" transform="translate(-37.34 -33.8)" fill="#fff"/><path d="M176.25,59.5h-1c-.1,0-.14,0-.14-.13V53c0-.09,0-.13.14-.13h1c.09,0,.14,0,.14.13v6.36C176.4,59.45,176.35,59.5,176.25,59.5Z" transform="translate(-37.34 -33.8)" fill="#fff"/><path d="M184,56.15a5.63,5.63,0,0,1-.14,1.26,3.17,3.17,0,0,1-.49,1.12,2.58,2.58,0,0,1-.9.8,2.87,2.87,0,0,1-1.39.3,3,3,0,0,1-1.39-.28,2.35,2.35,0,0,1-.88-.76,3,3,0,0,1-.46-1.09,6.08,6.08,0,0,1-.13-1.28A5.63,5.63,0,0,1,178.4,55a3.23,3.23,0,0,1,.48-1.12,2.53,2.53,0,0,1,.89-.8,2.88,2.88,0,0,1,1.39-.3,3.08,3.08,0,0,1,1.4.28,2.35,2.35,0,0,1,.89.76,3,3,0,0,1,.46,1.09A6.08,6.08,0,0,1,184,56.15Zm-1.34.18q0-.45,0-1a4.28,4.28,0,0,0-.19-1,1.91,1.91,0,0,0-.48-.79,1.22,1.22,0,0,0-.89-.31,1.17,1.17,0,0,0-.8.26,1.63,1.63,0,0,0-.46.68,3.58,3.58,0,0,0-.21.91q0,.5,0,1t0,1a3.92,3.92,0,0,0,.19,1,2,2,0,0,0,.48.79,1.23,1.23,0,0,0,.9.31,1.18,1.18,0,0,0,.8-.26,1.64,1.64,0,0,0,.46-.68,3.58,3.58,0,0,0,.21-.91Q182.7,56.8,182.7,56.33Z" transform="translate(-37.34 -33.8)" fill="#fff"/><path d="M191,57.73v1.78s0,.08-.09.1a.64.64,0,0,1-.19,0h-.2a.25.25,0,0,1-.12,0l-3.53-4.84a.07.07,0,0,0-.08,0,.07.07,0,0,0,0,.07l.13,4.52a.42.42,0,0,1,0,.13s0,0-.09,0H186c-.08,0-.12-.06-.12-.18l.12-4.68L186,53c0-.09,0-.13.14-.13h.62a.22.22,0,0,1,.19.09L190,57.21a.12.12,0,0,0,.13.06.09.09,0,0,0,.07-.11L190.14,53a.39.39,0,0,1,0-.13s0,0,.09,0H191c.05,0,.08,0,.09,0a.42.42,0,0,1,0,.13Z" transform="translate(-37.34 -33.8)" fill="#fff"/><path d="M198.57,59.37c.05.09,0,.13-.09.13H197.3a.19.19,0,0,1-.2-.13l-.1-.28-.09-.24-.08-.23-.35-.94a.13.13,0,0,0-.13-.09h-2.05a.13.13,0,0,0-.13.09l-.54,1.7a.17.17,0,0,1-.18.12h-.77q-.08,0-.09,0a.18.18,0,0,1,0-.12l2.47-6.42s.06-.06.15-.08l.27,0,.27,0c.08,0,.13,0,.15.08l2.31,5.71.1.23.12.24Zm-3.23-4.8s0,0-.05,0,0,0-.06,0L194.38,57a.07.07,0,0,0,0,.08.09.09,0,0,0,.07,0h1.75c.07,0,.1,0,.07-.11Z" transform="translate(-37.34 -33.8)" fill="#fff"/><path d="M204.18,59.48l-.12,0h-3.82c-.1,0-.14,0-.14-.13V53c0-.09,0-.13.14-.13h1c.09,0,.14,0,.14.13v5.67a.26.26,0,0,0,.26.26h.77l.49,0,.55-.07.63-.11a.21.21,0,0,1,.12,0,.09.09,0,0,1,0,.09v.56A.09.09,0,0,1,204.18,59.48Z" transform="translate(-37.34 -33.8)" fill="#fff"/><path d="M213.52,57.74a1.9,1.9,0,0,1-.18.87,1.57,1.57,0,0,1-.5.59,2.16,2.16,0,0,1-.76.33,4.14,4.14,0,0,1-1,.11,5.19,5.19,0,0,1-1.31-.14,8,8,0,0,1-1-.31.12.12,0,0,1-.07-.08.16.16,0,0,1,0-.11l.2-.74s0-.07.08-.07a.16.16,0,0,1,.11.05,2.91,2.91,0,0,0,.87.6,2.69,2.69,0,0,0,1.16.25,1.41,1.41,0,0,0,.88-.31,1.24,1.24,0,0,0,.3-.35.89.89,0,0,0,.12-.45.9.9,0,0,0-.28-.7,2.45,2.45,0,0,0-.68-.43q-.41-.18-.89-.34a4.53,4.53,0,0,1-.89-.4,2.28,2.28,0,0,1-.68-.62,1.66,1.66,0,0,1-.28-1,1.61,1.61,0,0,1,.53-1.29,2.18,2.18,0,0,1,1.47-.46,8.72,8.72,0,0,1,1.33.09q.57.09,1,.11a.07.07,0,0,1,.07,0,.18.18,0,0,1,0,.1l-.15.74c0,.09-.08.11-.18.05l-.36-.21a3,3,0,0,0-.45-.2,4.14,4.14,0,0,0-.55-.15,3.52,3.52,0,0,0-.68-.06,1.11,1.11,0,0,0-.67.22.72.72,0,0,0-.3.62.9.9,0,0,0,.28.7,2.38,2.38,0,0,0,.68.43q.41.18.89.34a4,4,0,0,1,.89.42,2.33,2.33,0,0,1,.69.67A1.93,1.93,0,0,1,213.52,57.74Z" transform="translate(-37.34 -33.8)" fill="#fff"/><path d="M220,53.47q0,.11-.14.1l-.63-.07-.55,0-.5,0a.14.14,0,0,0-.11.05.21.21,0,0,0,0,.14v5.73c0,.09,0,.13-.14.13h-1c-.1,0-.14,0-.14-.13V53.63a.21.21,0,0,0,0-.14.14.14,0,0,0-.11-.05l-.5,0-.55,0-.63.07q-.13,0-.14-.1l0-.49a.07.07,0,0,1,0-.09l.13,0h4.93l.13,0a.07.07,0,0,1,0,.09Z" transform="translate(-37.34 -33.8)" fill="#fff"/><path d="M226.61,53c0,.09,0,.18,0,.26s0,.17,0,.26,0,.18,0,.26l-.09,3.65a2.15,2.15,0,0,1-.61,1.61,2.45,2.45,0,0,1-1.72.54,3,3,0,0,1-1.93-.54,2,2,0,0,1-.68-1.61l0-3.69V53c0-.09,0-.13.14-.13h1c.1,0,.14,0,.14.13l0,.78V57.4a1.91,1.91,0,0,0,.12.7,1.53,1.53,0,0,0,.32.51,1.28,1.28,0,0,0,.46.31,1.44,1.44,0,0,0,.55.11,1.56,1.56,0,0,0,.49-.08,1.33,1.33,0,0,0,.45-.26,1.25,1.25,0,0,0,.33-.46,1.81,1.81,0,0,0,.12-.71l0-3.65c0-.08,0-.17,0-.27s0-.19,0-.27l0-.28a.39.39,0,0,1,0-.13s0,0,.09,0h.87C226.57,52.87,226.61,52.93,226.61,53Z" transform="translate(-37.34 -33.8)" fill="#fff"/><path d="M233.86,56.06a4.24,4.24,0,0,1-.2,1.3,3.5,3.5,0,0,1-.58,1.11,2.84,2.84,0,0,1-.94.78,2.76,2.76,0,0,1-1.29.29h-.7l-.43,0-.25,0-.17,0h-.17l-.1,0-.1,0h-.15l-.1,0s0,0,0-.09V53c0-.09,0-.13.14-.13h2.35a2.73,2.73,0,0,1,1,.2,2.47,2.47,0,0,1,.88.6,2.91,2.91,0,0,1,.61,1A4,4,0,0,1,233.86,56.06ZM232.5,56a4.6,4.6,0,0,0-.15-1.27,2.41,2.41,0,0,0-.39-.82,1.38,1.38,0,0,0-.54-.44,1.58,1.58,0,0,0-.61-.13h-.73a.17.17,0,0,0-.15.07.29.29,0,0,0,0,.17V58.5a.46.46,0,0,0,.21.44,1.21,1.21,0,0,0,.58.12,1.37,1.37,0,0,0,.94-.32,2.16,2.16,0,0,0,.56-.78,3.71,3.71,0,0,0,.26-1A8,8,0,0,0,232.5,56Z" transform="translate(-37.34 -33.8)" fill="#fff"/><path d="M236.81,59.5h-1c-.1,0-.14,0-.14-.13V53c0-.09,0-.13.14-.13h1c.09,0,.14,0,.14.13v6.36C237,59.45,236.9,59.5,236.81,59.5Z" transform="translate(-37.34 -33.8)" fill="#fff"/><path d="M243.45,59.48l-.12,0H239.2c-.1,0-.14,0-.14-.13V53c0-.09,0-.13.14-.13h4l.12,0a.09.09,0,0,1,0,.09v.52a.09.09,0,0,1,0,.09.21.21,0,0,1-.12,0l-.66-.08-.58-.06-.51,0h-.88a.26.26,0,0,0-.19.07.24.24,0,0,0-.08.18v2a.07.07,0,0,0,.08.08l2-.06c.07,0,.11,0,.11.08v.52c0,.05,0,.08-.11.08l-2-.05a.07.07,0,0,0-.08.08v2.25a.26.26,0,0,0,.26.26h.88l.53,0,.62-.07.72-.11a.2.2,0,0,1,.12,0,.09.09,0,0,1,0,.09v.56A.09.09,0,0,1,243.45,59.48Z" transform="translate(-37.34 -33.8)" fill="#fff"/><path d="M249.7,57.74a1.9,1.9,0,0,1-.18.87,1.57,1.57,0,0,1-.5.59,2.16,2.16,0,0,1-.76.33,4.14,4.14,0,0,1-1,.11,5.19,5.19,0,0,1-1.31-.14,8,8,0,0,1-1-.31.12.12,0,0,1-.07-.08.16.16,0,0,1,0-.11l.2-.74s0-.07.08-.07a.16.16,0,0,1,.11.05,2.91,2.91,0,0,0,.87.6,2.69,2.69,0,0,0,1.16.25,1.41,1.41,0,0,0,.88-.31,1.24,1.24,0,0,0,.3-.35.89.89,0,0,0,.12-.45.9.9,0,0,0-.28-.7,2.45,2.45,0,0,0-.68-.43q-.41-.18-.89-.34a4.53,4.53,0,0,1-.89-.4,2.28,2.28,0,0,1-.68-.62,1.66,1.66,0,0,1-.28-1,1.61,1.61,0,0,1,.53-1.29,2.18,2.18,0,0,1,1.47-.46,8.72,8.72,0,0,1,1.33.09q.57.09,1,.11a.07.07,0,0,1,.07,0,.18.18,0,0,1,0,.1l-.15.74c0,.09-.08.11-.18.05l-.36-.21a3,3,0,0,0-.45-.2,4.14,4.14,0,0,0-.55-.15,3.52,3.52,0,0,0-.68-.06,1.11,1.11,0,0,0-.67.22.72.72,0,0,0-.3.62.9.9,0,0,0,.28.7,2.38,2.38,0,0,0,.68.43q.41.18.89.34a4,4,0,0,1,.89.42,2.33,2.33,0,0,1,.69.67A1.93,1.93,0,0,1,249.7,57.74Z" transform="translate(-37.34 -33.8)" fill="#fff"/><path d="M283,43.48v3c0,.1-.06.16-.18.16h-.65c-.13,0-.2-.05-.2-.16V42.1s0,0,0-.05-.05,0-.08,0l-2.43,4.25a.14.14,0,0,1-.13.07.17.17,0,0,1-.13-.08l-2.29-4.26a0,0,0,0,0,0,0,0,0,0,0,0,0,0l.12,4.37c0,.1-.06.16-.18.16h-.53c-.12,0-.18-.05-.18-.16l.13-4.32,0-1.61c0-.1.06-.16.18-.16H277l.12,0a.14.14,0,0,1,.08.08l2.22,4.36a.09.09,0,0,0,.14,0l2.35-4.28a.68.68,0,0,1,.1-.12.22.22,0,0,1,.16-.06h.63a.18.18,0,0,1,.16.06.24.24,0,0,1,0,.14Z" transform="translate(-37.34 -33.8)" fill="#fff"/><path d="M286.17,46.61h-.66c-.12,0-.18-.05-.18-.16V40.53c0-.1.06-.16.18-.16h.66c.13,0,.19.05.19.16v5.93C286.37,46.56,286.3,46.61,286.17,46.61Z" transform="translate(-37.34 -33.8)" fill="#fff"/><path d="M293.17,44.95a1.6,1.6,0,0,1-.2.83,1.66,1.66,0,0,1-.53.55,2.35,2.35,0,0,1-.77.31,4.31,4.31,0,0,1-.92.1,5.44,5.44,0,0,1-1.33-.14,9.57,9.57,0,0,1-.94-.29.14.14,0,0,1-.1-.1.17.17,0,0,1,0-.12l.2-.64c0-.07.06-.1.12-.1a.21.21,0,0,1,.14.06,2.55,2.55,0,0,0,.84.55,3,3,0,0,0,1.15.21,1.87,1.87,0,0,0,.55-.08,1.7,1.7,0,0,0,.46-.21,1.09,1.09,0,0,0,.31-.31.73.73,0,0,0,.12-.4.8.8,0,0,0-.2-.55,1.85,1.85,0,0,0-.49-.39,4.05,4.05,0,0,0-.62-.28l-.58-.21-.7-.29a3.16,3.16,0,0,1-.63-.37,1.74,1.74,0,0,1-.45-.5,1.3,1.3,0,0,1-.17-.68,1.46,1.46,0,0,1,.57-1.24,2.31,2.31,0,0,1,1.44-.43,9.32,9.32,0,0,1,1.32.08c.36.05.67.09.93.1a.14.14,0,0,1,.12.06.18.18,0,0,1,0,.12l-.14.63a.13.13,0,0,1-.1.1.19.19,0,0,1-.14,0,6.42,6.42,0,0,0-.83-.35,3.57,3.57,0,0,0-1.18-.17,1.34,1.34,0,0,0-.78.21.64.64,0,0,0-.3.55.8.8,0,0,0,.11.43,1.16,1.16,0,0,0,.29.32,1.9,1.9,0,0,0,.39.23l.41.18.87.32a4.27,4.27,0,0,1,.86.41,2.4,2.4,0,0,1,.66.6A1.49,1.49,0,0,1,293.17,44.95Z" transform="translate(-37.34 -33.8)" fill="#fff"/><path d="M299.66,44.95a1.6,1.6,0,0,1-.2.83,1.66,1.66,0,0,1-.53.55,2.36,2.36,0,0,1-.77.31,4.31,4.31,0,0,1-.92.1,5.44,5.44,0,0,1-1.33-.14,9.57,9.57,0,0,1-.94-.29.14.14,0,0,1-.1-.1.17.17,0,0,1,0-.12l.19-.64c0-.07.06-.1.12-.1a.21.21,0,0,1,.14.06,2.57,2.57,0,0,0,.84.55,3,3,0,0,0,1.15.21,1.86,1.86,0,0,0,.54-.08,1.69,1.69,0,0,0,.46-.21,1.08,1.08,0,0,0,.31-.31.73.73,0,0,0,.12-.4.81.81,0,0,0-.2-.55,1.88,1.88,0,0,0-.49-.39,4.07,4.07,0,0,0-.62-.28l-.58-.21-.7-.29a3.11,3.11,0,0,1-.63-.37,1.76,1.76,0,0,1-.45-.5,1.31,1.31,0,0,1-.17-.68,1.46,1.46,0,0,1,.56-1.24,2.31,2.31,0,0,1,1.44-.43,9.32,9.32,0,0,1,1.32.08c.36.05.67.09.93.1a.14.14,0,0,1,.12.06.18.18,0,0,1,0,.12l-.14.63a.13.13,0,0,1-.1.1.19.19,0,0,1-.14,0,6.53,6.53,0,0,0-.83-.35,3.58,3.58,0,0,0-1.18-.17,1.34,1.34,0,0,0-.78.21.64.64,0,0,0-.3.55.81.81,0,0,0,.11.43,1.18,1.18,0,0,0,.29.32,1.86,1.86,0,0,0,.39.23l.41.18.87.32a4.29,4.29,0,0,1,.86.41,2.4,2.4,0,0,1,.66.6A1.49,1.49,0,0,1,299.66,44.95Z" transform="translate(-37.34 -33.8)" fill="#fff"/><path d="M302.43,46.61h-.66c-.12,0-.18-.05-.18-.16V40.53c0-.1.06-.16.18-.16h.66c.13,0,.2.05.2.16v5.93C302.63,46.56,302.56,46.61,302.43,46.61Z" transform="translate(-37.34 -33.8)" fill="#fff"/><path d="M309,46.58a.34.34,0,0,1-.16,0h-3.73c-.12,0-.18-.05-.18-.16V40.53c0-.1.06-.16.18-.16h.66c.13,0,.2.05.2.16V45.8a.19.19,0,0,0,.07.15.24.24,0,0,0,.17.06h.91l.51,0,.57-.07.65-.1a.34.34,0,0,1,.14,0c.05,0,.08.05.08.12v.52A.11.11,0,0,1,309,46.58Z" transform="translate(-37.34 -33.8)" fill="#fff"/><path d="M315.12,46.61h-4.05c-.12,0-.18-.05-.18-.16V40.53c0-.1.06-.16.18-.16H315a.34.34,0,0,1,.16,0,.11.11,0,0,1,.07.11V41a.11.11,0,0,1-.07.11.26.26,0,0,1-.16,0L314.3,41l-.59-.05-.53,0h-1A.24.24,0,0,0,312,41a.18.18,0,0,0-.07.14V43a0,0,0,0,0,0,0l2.17-.05.1,0a.08.08,0,0,1,.05.08v.48a.09.09,0,0,1-.05.09l-.1,0-2.17-.05a0,0,0,0,0,0,0V45.8A.19.19,0,0,0,312,46a.24.24,0,0,0,.17.06h1l.55,0,.64-.07.75-.1a.31.31,0,0,1,.14,0s.07.05.07.12v.52C315.33,46.56,315.26,46.61,315.12,46.61Z" transform="translate(-37.34 -33.8)" fill="#fff"/><path d="M325,43.44a3.77,3.77,0,0,1-.2,1.24,3.11,3.11,0,0,1-.58,1,2.74,2.74,0,0,1-.93.7,2.9,2.9,0,0,1-1.24.25h-.73l-.44,0-.27,0h-.34l-.11,0-.11,0h-.16l-.12,0s-.06-.06-.06-.12v-6c0-.1.06-.16.18-.16h2.24a3,3,0,0,1,1.21.23,2.62,2.62,0,0,1,.9.64,2.78,2.78,0,0,1,.57,1A3.68,3.68,0,0,1,325,43.44Zm-1.14-.06a4.9,4.9,0,0,0-.08-.92,2.47,2.47,0,0,0-.29-.8,1.6,1.6,0,0,0-1.47-.79h-1a.35.35,0,0,0-.2.06.17.17,0,0,0-.09.14v4.59a.36.36,0,0,0,.11.27.79.79,0,0,0,.27.18,1.47,1.47,0,0,0,.34.09l.32,0a1.81,1.81,0,0,0,1-.25,1.89,1.89,0,0,0,.63-.66,3,3,0,0,0,.33-.92A5.35,5.35,0,0,0,323.88,43.37Z" transform="translate(-37.34 -33.8)" fill="#fff"/><path d="M331.3,46.61h-4.05c-.12,0-.18-.05-.18-.16V40.53c0-.1.06-.16.18-.16h3.92a.34.34,0,0,1,.16,0,.11.11,0,0,1,.07.11V41a.11.11,0,0,1-.07.11.26.26,0,0,1-.16,0l-.69-.08-.59-.05-.53,0h-1a.24.24,0,0,0-.17.06.18.18,0,0,0-.07.14V43a0,0,0,0,0,0,0l2.17-.05.1,0a.08.08,0,0,1,.05.08v.48a.09.09,0,0,1-.05.09l-.1,0-2.17-.05a0,0,0,0,0,0,0V45.8a.19.19,0,0,0,.07.15.24.24,0,0,0,.17.06h1l.55,0,.64-.07.75-.1a.31.31,0,0,1,.14,0s.07.05.07.12v.52C331.5,46.56,331.43,46.61,331.3,46.61Z" transform="translate(-37.34 -33.8)" fill="#fff"/><path d="M337.44,41.1a.26.26,0,0,1-.16,0l-.74-.08-.6-.05-.46,0h-.92a.24.24,0,0,0-.17.06.18.18,0,0,0-.06.14V43a0,0,0,0,0,0,0l2.08-.05.1,0a.1.1,0,0,1,0,.09v.48a.08.08,0,0,1,0,.08l-.1,0-2.08-.05a0,0,0,0,0,0,0l0,2.76c0,.1-.07.16-.2.16h-.66c-.12,0-.18-.05-.18-.16V40.53c0-.1.06-.16.18-.16h3.81c.14,0,.21,0,.21.14V41A.11.11,0,0,1,337.44,41.1Z" transform="translate(-37.34 -33.8)" fill="#fff"/><path d="M343.44,46.61h-4.05c-.12,0-.18-.05-.18-.16V40.53c0-.1.06-.16.18-.16h3.92a.34.34,0,0,1,.16,0,.11.11,0,0,1,.07.11V41a.11.11,0,0,1-.07.11.26.26,0,0,1-.16,0l-.69-.08L342,41l-.53,0h-1a.24.24,0,0,0-.17.06.18.18,0,0,0-.07.14V43a0,0,0,0,0,0,0l2.17-.05.1,0a.08.08,0,0,1,.05.08v.48a.09.09,0,0,1-.05.09l-.1,0-2.17-.05a0,0,0,0,0,0,0V45.8a.19.19,0,0,0,.07.15.24.24,0,0,0,.17.06h1l.55,0,.64-.07.75-.1a.31.31,0,0,1,.14,0s.07.05.07.12v.52C343.65,46.56,343.58,46.61,343.44,46.61Z" transform="translate(-37.34 -33.8)" fill="#fff"/><path d="M350.64,44.93v1.65a.15.15,0,0,1,0,.12.24.24,0,0,1-.1.05.18.18,0,0,1-.11,0l-.08,0-4-4.76s0,0,0,0l0,0,.14,4.47a.29.29,0,0,1,0,.13.14.14,0,0,1-.14.06h-.58c-.07,0-.11,0-.13-.06a.34.34,0,0,1,0-.13l.13-4.37,0-1.52c0-.1.06-.16.19-.16H346l.13,0a.24.24,0,0,1,.1.08l3.56,4.21s.07.05.1,0,0,0,0-.06l-.12-4.1a.36.36,0,0,1,0-.13s.06-.07.13-.07h.55c.07,0,.11,0,.13.07a.36.36,0,0,1,0,.13Z" transform="translate(-37.34 -33.8)" fill="#fff"/><path d="M357.48,44.95a1.6,1.6,0,0,1-.2.83,1.66,1.66,0,0,1-.53.55,2.36,2.36,0,0,1-.77.31,4.31,4.31,0,0,1-.92.1,5.44,5.44,0,0,1-1.33-.14,9.57,9.57,0,0,1-.94-.29.14.14,0,0,1-.1-.1.17.17,0,0,1,0-.12l.2-.64c0-.07.06-.1.12-.1a.21.21,0,0,1,.14.06A2.56,2.56,0,0,0,354,46a3,3,0,0,0,1.15.21,1.87,1.87,0,0,0,.55-.08,1.7,1.7,0,0,0,.46-.21,1.08,1.08,0,0,0,.31-.31.73.73,0,0,0,.12-.4.81.81,0,0,0-.2-.55,1.88,1.88,0,0,0-.49-.39,4.11,4.11,0,0,0-.62-.28l-.58-.21-.7-.29a3.16,3.16,0,0,1-.63-.37,1.74,1.74,0,0,1-.45-.5,1.3,1.3,0,0,1-.17-.68,1.46,1.46,0,0,1,.57-1.24,2.31,2.31,0,0,1,1.44-.43,9.32,9.32,0,0,1,1.32.08c.36.05.67.09.93.1a.14.14,0,0,1,.12.06.18.18,0,0,1,0,.12l-.14.63a.13.13,0,0,1-.1.1.19.19,0,0,1-.14,0,6.53,6.53,0,0,0-.83-.35,3.59,3.59,0,0,0-1.18-.17,1.34,1.34,0,0,0-.78.21.64.64,0,0,0-.3.55.8.8,0,0,0,.11.43,1.18,1.18,0,0,0,.29.32,1.88,1.88,0,0,0,.39.23l.41.18.87.32a4.29,4.29,0,0,1,.86.41,2.4,2.4,0,0,1,.66.6A1.49,1.49,0,0,1,357.48,44.95Z" transform="translate(-37.34 -33.8)" fill="#fff"/><path d="M363.65,46.61H359.6c-.12,0-.18-.05-.18-.16V40.53c0-.1.06-.16.18-.16h3.92a.34.34,0,0,1,.16,0,.11.11,0,0,1,.07.11V41a.11.11,0,0,1-.07.11.26.26,0,0,1-.16,0l-.69-.08-.59-.05-.53,0h-1a.24.24,0,0,0-.17.06.18.18,0,0,0-.07.14V43a0,0,0,0,0,0,0l2.17-.05.1,0a.08.08,0,0,1,.05.08v.48a.09.09,0,0,1-.05.09l-.1,0-2.17-.05a0,0,0,0,0,0,0V45.8a.19.19,0,0,0,.07.15.24.24,0,0,0,.17.06h1l.55,0,.64-.07.75-.1a.31.31,0,0,1,.14,0s.07.05.07.12v.52C363.86,46.56,363.79,46.61,363.65,46.61Z" transform="translate(-37.34 -33.8)" fill="#fff"/><path d="M280.82,55a1.58,1.58,0,0,1-.71,1.33,2.87,2.87,0,0,1-.89.39,4.88,4.88,0,0,1-1.25.14h-.73a.22.22,0,0,0-.12,0,.11.11,0,0,0-.06.09v2.34c0,.1-.07.16-.19.16h-.66c-.12,0-.18-.05-.18-.16V53.41c0-.1.06-.16.18-.16h2.25a4.05,4.05,0,0,1,.85.09,2.36,2.36,0,0,1,.75.3,1.67,1.67,0,0,1,.54.55A1.53,1.53,0,0,1,280.82,55Zm-1.1,0a1.09,1.09,0,0,0-.4-.94,2.38,2.38,0,0,0-1.38-.3h-.62a.27.27,0,0,0-.17.06.17.17,0,0,0-.07.14v2.31a.13.13,0,0,0,.06.1.2.2,0,0,0,.12,0h.58a4.45,4.45,0,0,0,.75-.06,1.59,1.59,0,0,0,.6-.22,1.14,1.14,0,0,0,.4-.44A1.52,1.52,0,0,0,279.71,55Z" transform="translate(-37.34 -33.8)" fill="#fff"/><path d="M288.05,59.32s0,.08,0,.12a.2.2,0,0,1-.16.06H287a.23.23,0,0,1-.18-.09l0-.05L285.22,57q-.27-.39-.55-.39h-.77a.22.22,0,0,0-.12,0,.11.11,0,0,0-.06.09v2.6c0,.1-.06.16-.19.16h-.66c-.12,0-.18-.05-.18-.16V53.41a.27.27,0,0,1,0-.11s.05,0,.12,0h2.76a2.29,2.29,0,0,1,.71.11,1.9,1.9,0,0,1,.59.31,1.57,1.57,0,0,1,.4.47,1.22,1.22,0,0,1,.15.6,1.53,1.53,0,0,1-.46,1.12,2.24,2.24,0,0,1-1.19.6h0a2.83,2.83,0,0,1,.44.49l1.5,1.94Zm-1.7-4.49a1,1,0,0,0-.32-.77,1.17,1.17,0,0,0-.84-.3H284a.3.3,0,0,0-.18.06.17.17,0,0,0-.08.14v2a.12.12,0,0,0,.06.1.2.2,0,0,0,.12,0h.82a2.16,2.16,0,0,0,1.19-.28A1.11,1.11,0,0,0,286.35,54.83Z" transform="translate(-37.34 -33.8)" fill="#fff"/><path d="M295.23,56.35a4.7,4.7,0,0,1-.16,1.21,3,3,0,0,1-.51,1,2.56,2.56,0,0,1-.91.74,3.06,3.06,0,0,1-1.38.28,3.3,3.3,0,0,1-1.39-.26,2.33,2.33,0,0,1-.9-.71,2.82,2.82,0,0,1-.48-1,5.09,5.09,0,0,1-.14-1.23,4.65,4.65,0,0,1,.16-1.21,3,3,0,0,1,.51-1,2.56,2.56,0,0,1,.91-.74,3.07,3.07,0,0,1,1.38-.28,3.27,3.27,0,0,1,1.38.26,2.4,2.4,0,0,1,.9.71,2.75,2.75,0,0,1,.49,1A5.12,5.12,0,0,1,295.23,56.35Zm-1.13.16q0-.43-.05-.94a3.23,3.23,0,0,0-.24-.95,1.84,1.84,0,0,0-.55-.72,1.58,1.58,0,0,0-1-.29,1.54,1.54,0,0,0-.9.24,1.67,1.67,0,0,0-.54.63,2.7,2.7,0,0,0-.26.85,6.71,6.71,0,0,0-.06.91,9,9,0,0,0,.05.93,3.15,3.15,0,0,0,.24.94,1.8,1.8,0,0,0,.56.72,1.61,1.61,0,0,0,1,.29,1.54,1.54,0,0,0,.9-.24,1.62,1.62,0,0,0,.53-.62,2.78,2.78,0,0,0,.25-.85A6.57,6.57,0,0,0,294.1,56.51Z" transform="translate(-37.34 -33.8)" fill="#fff"/><path d="M299.81,56.39V58a1.44,1.44,0,0,1-.47,1.09,1.9,1.9,0,0,1-1.35.44h-1.24a.35.35,0,0,1-.16,0,.09.09,0,0,1-.05-.11l.05-.57a.2.2,0,0,1,.09-.13.11.11,0,0,1,.15,0,1.49,1.49,0,0,0,.53.23A2.72,2.72,0,0,0,298,59a.75.75,0,0,0,.29-.06.72.72,0,0,0,.26-.19,1,1,0,0,0,.19-.32,1.3,1.3,0,0,0,.07-.46V53.41c0-.1.06-.16.18-.16h.66c.13,0,.2.05.2.16Z" transform="translate(-37.34 -33.8)" fill="#fff"/><path d="M306.37,59.5h-4.05c-.12,0-.18-.05-.18-.16V53.41c0-.1.06-.16.18-.16h3.92a.33.33,0,0,1,.16,0,.11.11,0,0,1,.07.11v.48a.11.11,0,0,1-.07.11.25.25,0,0,1-.16,0l-.69-.08-.59-.05-.53,0h-1a.25.25,0,0,0-.17.06.18.18,0,0,0-.07.14v1.87a0,0,0,0,0,0,0l2.17-.05.1,0a.08.08,0,0,1,.05.08v.48a.09.09,0,0,1-.05.09l-.1,0-2.17-.05a0,0,0,0,0,0,0v2.09a.19.19,0,0,0,.07.15.24.24,0,0,0,.17.06h1l.55,0,.64-.07.75-.1a.29.29,0,0,1,.14,0s.07.05.07.12v.52C306.58,59.45,306.51,59.5,306.37,59.5Z" transform="translate(-37.34 -33.8)" fill="#fff"/><path d="M313.07,58.85a2.72,2.72,0,0,1-.93.57,3.33,3.33,0,0,1-1.19.21,3.61,3.61,0,0,1-1.09-.17,2.6,2.6,0,0,1-1-.55,2.71,2.71,0,0,1-.68-1,4,4,0,0,1-.26-1.52,3.43,3.43,0,0,1,.24-1.31,2.92,2.92,0,0,1,.65-1,2.82,2.82,0,0,1,.95-.62,3,3,0,0,1,1.13-.21h1.86l.12,0s.05.05,0,.13l-.08.59a.17.17,0,0,1-.08.13.16.16,0,0,1-.14,0,7.69,7.69,0,0,0-.83-.21,4.93,4.93,0,0,0-.92-.07,1.51,1.51,0,0,0-1.31.64,3.29,3.29,0,0,0-.46,1.9,4,4,0,0,0,.17,1.25,2.14,2.14,0,0,0,.46.81,1.67,1.67,0,0,0,.68.44,2.67,2.67,0,0,0,.84.13,1.72,1.72,0,0,0,.73-.18,3.16,3.16,0,0,0,.66-.4l.08,0a.08.08,0,0,1,.09,0l.21.26A.09.09,0,0,1,313.07,58.85Z" transform="translate(-37.34 -33.8)" fill="#fff"/><path d="M319.72,53.86c0,.1-.07.15-.18.13l-.69-.07-.58,0-.52,0a.13.13,0,0,0-.08,0,.15.15,0,0,0,0,.11v5.33c0,.1-.06.16-.18.16h-.66c-.12,0-.18-.05-.18-.16V54a.13.13,0,0,0,0-.1.13.13,0,0,0-.08,0l-.53,0-.59,0-.68.07c-.11,0-.17,0-.18-.13l0-.46a.09.09,0,0,1,.06-.11.37.37,0,0,1,.16,0h4.88a.38.38,0,0,1,.16,0,.09.09,0,0,1,.06.11Z" transform="translate(-37.34 -33.8)" fill="#fff"/><path d="M53.82,38.56c.86.13,2,.56,2.51.63.17,0,.5.23.5,1s.16,2.15.23,2.87-.23,1.09-.5,1.09-.36-.36-.53-.86a5.13,5.13,0,0,0-1.35-2.48,8.27,8.27,0,0,0-5.28-1.72c-5.32,0-8.72,4.39-8.72,9.38a12,12,0,0,0,1.16,5.45,9.53,9.53,0,0,0,8.35,5.28,7.58,7.58,0,0,0,3.6-.89,7.38,7.38,0,0,0,3.07-3.2c.43-.69.56-.86.69-.86.33,0,.36.73.3,1.09a11.92,11.92,0,0,1-1.32,3.34,2.64,2.64,0,0,1-1,.86,20,20,0,0,1-6,.92,12.79,12.79,0,0,1-9.38-3.86A11.15,11.15,0,0,1,37.34,49,11,11,0,0,1,41,41.07a13.62,13.62,0,0,1,8.95-3A18.33,18.33,0,0,1,53.82,38.56Z" transform="translate(-37.34 -33.8)" fill="#fff"/><path d="M72,38.62c.2.07.4.56.4.63.07.63.33,2.54.33,2.67,0,.56,0,.89-.23.89a.92.92,0,0,1-.79-.69,5.31,5.31,0,0,0-1.62-2.38A3.76,3.76,0,0,0,67.75,39,3.71,3.71,0,0,0,64,42.85c0,2.34,1.68,3.37,4.59,5.32,2.54,1.72,4.56,3.43,4.56,6.41a5.72,5.72,0,0,1-2.71,4.66,9.35,9.35,0,0,1-4.49,1.19,13.26,13.26,0,0,1-4.33-.86,2.46,2.46,0,0,1-.76-1.06c-.17-1.12-.5-2.58-.5-3.1,0-.13.33-.63.46-.63s.76.86,1.22,1.88a5.12,5.12,0,0,0,4.29,2.64,3.85,3.85,0,0,0,4-4c0-1.39-.66-2.87-4.13-5.08-2.81-1.82-4.79-3.73-4.79-6.54a5.42,5.42,0,0,1,1.82-4A7,7,0,0,1,68.08,38,20.33,20.33,0,0,1,72,38.62Z" transform="translate(-37.34 -33.8)" fill="#fff"/><path d="M79.07,41.86c-.1-1.52-.1-2-1.95-2.34-.73-.13-.92-.36-.92-.59s.36-.4.83-.4c.86,0,2.51.1,3.6.1,1.62,0,2.38-.1,3.53-.1.53,0,.83.13.83.4s-.33.46-.86.56c-1.92.4-1.88,1.22-2,2.11a94.68,94.68,0,0,0-.2,9.71c0,1.82,0,3.86.1,4.92.1,1.78.26,2.41,2.41,2.84.59.1.86.33.86.56s-.5.43-.89.43c-1.68,0-4-.2-4.92-.2s-1.29.07-2.51.07c-.63,0-.86-.23-.86-.46s.33-.43,1-.56c1.65-.36,1.78-.86,1.92-2.41.1-1.16.16-4.59.16-7.4C79.17,47,79.14,42.95,79.07,41.86Z" transform="translate(-37.34 -33.8)" fill="#fff"/><path d="M99.41,38.62c.2.07.4.56.4.63.07.63.33,2.54.33,2.67,0,.56,0,.89-.23.89a.92.92,0,0,1-.79-.69,5.32,5.32,0,0,0-1.62-2.38A3.76,3.76,0,0,0,95.15,39a3.71,3.71,0,0,0-3.8,3.86c0,2.34,1.68,3.37,4.59,5.32,2.54,1.72,4.56,3.43,4.56,6.41a5.72,5.72,0,0,1-2.71,4.66,9.35,9.35,0,0,1-4.49,1.19A13.27,13.27,0,0,1,89,59.56a2.46,2.46,0,0,1-.76-1.06c-.17-1.12-.5-2.58-.5-3.1,0-.13.33-.63.46-.63s.76.86,1.22,1.88a5.12,5.12,0,0,0,4.29,2.64,3.85,3.85,0,0,0,4-4c0-1.39-.66-2.87-4.13-5.08-2.81-1.82-4.79-3.73-4.79-6.54a5.42,5.42,0,0,1,1.82-4A7,7,0,0,1,95.48,38,20.31,20.31,0,0,1,99.41,38.62Z" transform="translate(-37.34 -33.8)" fill="#fff"/><text x="-37.34" y="-33.8"></text><text x="-37.34" y="-33.8"></text><text x="-37.34" y="-33.8"></text></svg>