<svg xmlns="http://www.w3.org/2000/svg" viewBox="745.9 423.5 131.595 83.467"><defs><style>.a{fill:none;stroke:#fff;stroke-miterlimit:10;stroke-width:1px;}</style></defs><path class="a" d="M4.3,65.7,64.4,53.3l63.3,12.4" transform="translate(745.9 423.5)"/><path class="a" d="M.1,68.7,64.4,55.6l67.1,13" transform="translate(745.9 423.5)"/><path class="a" d="M6.9,81.3l57.3-6.6,63.5,5.1" transform="translate(745.9 423.5)"/><path class="a" d="M14,63.7,12.4,82.9l51.8-6,57.1,4.6-1.7-17.4" transform="translate(745.9 423.5)"/><path class="a" d="M64.2,76.9V50.7L22.1,59.5,40.7,15.2,69.1.5h2.5L95.2,16.7l17.5,43.8L64.2,50.7" transform="translate(745.9 423.5)"/><path class="a" d="M90.7,56,71.6,9H69.1L51.5,53.3" transform="translate(745.9 423.5)"/><path class="a" d="M54.9,44.5c-5.7,7.1-14.8,10.9-20.6,7.6-3.1-1.8-4.8-4.9-5.2-8.7" transform="translate(745.9 423.5)"/><path class="a" d="M37.5,22.4c5.8-6.3,13.4-10,19-7.7,4.1,1.6,5.6,6.9,5,13.1" transform="translate(745.9 423.5)"/><path class="a" d="M97.1,21.5c-5-4.4-10.8-6.6-15.2-4.9-2.5,1-3.9,3.4-4.5,6.6" transform="translate(745.9 423.5)"/><path class="a" d="M88.2,49.5c5.3,4.3,11.5,6.3,15.6,3.9a8.562,8.562,0,0,0,3.9-5" transform="translate(745.9 423.5)"/><path class="a" d="M69.1,9V.5h2.5V9" transform="translate(745.9 423.5)"/><path class="a" d="M61.1,61.2l-3.5,2.5v9" transform="translate(745.9 423.5)"/><path class="a" d="M70.3,9h0V51.9" transform="translate(745.9 423.5)"/><line class="a" y2="41.2" transform="translate(818.2 434.4)"/><line class="a" y2="37.2" transform="translate(820.2 439)"/><line class="a" y2="32.9" transform="translate(822.2 443.9)"/><line class="a" y2="28.3" transform="translate(824.2 448.7)"/><line class="a" y2="24" transform="translate(826.2 453.7)"/><line class="a" y2="29.8" transform="translate(810.2 444.5)"/><line class="a" y2="35" transform="translate(812.2 439.5)"/><line class="a" y2="40.8" transform="translate(814.2 434.4)"/><line class="a" y2="16" transform="translate(804.2 459.6)"/><line class="a" y2="20.1" transform="translate(806.2 454.6)"/><line class="a" y2="24.9" transform="translate(808.2 449.5)"/><line class="a" y2="19.7" transform="translate(828.2 458.5)"/><line class="a" y2="15" transform="translate(830.2 463.4)"/><line class="a" y2="10.7" transform="translate(832.2 468.4)"/><line class="a" y2="2.1" transform="translate(798.2 474.7)"/><line class="a" y2="6.3" transform="translate(800.2 469.7)"/><line class="a" y2="11" transform="translate(802.2 464.7)"/><line class="a" y2="5.6" transform="translate(834.1 473)"/><line class="a" y2="0.6" transform="translate(836.1 478.2)"/></svg>