<svg xmlns="http://www.w3.org/2000/svg" viewBox="1142.8 498 131.79 85.545"><defs><style>.a{fill:none;stroke:#fff;stroke-miterlimit:10;stroke-width:2px;}</style></defs><g transform="translate(931)"><path class="a" d="M4.4,66.2,64.5,53.8l63.3,12.4" transform="translate(211.8 498)"/><path class="a" d="M.2,70.2,64.5,57.1l67.1,13" transform="translate(211.8 498)"/><path class="a" d="M7,81.8l57.3-6.6,63.5,5.1" transform="translate(211.8 498)"/><path class="a" d="M14.1,63.6,12.5,84.4l51.8-6.5,57.1,5-1.7-18.8" transform="translate(211.8 498)"/><path class="a" d="M64.3,77.4V51.2L22.2,60,40.8,15.7,69.2,1h2.5L95.3,17.2,112.8,61,64.3,51.2" transform="translate(211.8 498)"/><path class="a" d="M90.8,56.5,71.7,9.5H69.2L51.6,53.8" transform="translate(211.8 498)"/><path class="a" d="M55,45c-5.3,6.5-14.2,9.8-20,6.5a11.11,11.11,0,0,1-5.4-8.4" transform="translate(211.8 498)"/><path class="a" d="M37.6,22.9c5.8-6.3,13.4-10,19-7.7,4.1,1.6,5.6,6.9,5,13.1" transform="translate(211.8 498)"/><path class="a" d="M97.2,22c-5-4.4-10.8-6.6-15.2-4.9-2.5,1-3.9,3.4-4.5,6.6" transform="translate(211.8 498)"/><path class="a" d="M88.3,50c5.1,4.1,11.2,5.8,15.3,3.4a9.262,9.262,0,0,0,4-4.9" transform="translate(211.8 498)"/><path class="a" d="M69.2,9.5V1h2.5V9.5" transform="translate(211.8 498)"/><path class="a" d="M60.1,63.7l-2.4,2.1v7.7" transform="translate(211.8 498)"/><path class="a" d="M70.4,9.5h0V52.4" transform="translate(211.8 498)"/><line class="a" y2="37.2" transform="translate(286.2 514)"/><line class="a" y2="28.3" transform="translate(290.2 523.7)"/><line class="a" y2="35" transform="translate(278.2 514.5)"/><line class="a" y2="16" transform="translate(270.2 534.6)"/><line class="a" y2="24.9" transform="translate(274.2 524.5)"/><line class="a" y2="19.7" transform="translate(294.2 533.5)"/><line class="a" y2="10.7" transform="translate(298.2 543.4)"/><line class="a" y2="2.1" transform="translate(264.2 549.7)"/><line class="a" y2="6.3" transform="translate(266.2 544.7)"/><line class="a" y2="0.6" transform="translate(302.1 553.2)"/></g></svg>