<svg xmlns="http://www.w3.org/2000/svg" viewBox="5827 7979 36.001 37"><defs><style>.a{fill:#073447;}</style></defs><g transform="translate(4668 4186)"><path class="a" d="M-4632-4149h-36v-37h36v37Zm-18.057-34A15.962,15.962,0,0,0-4666-4167.057a15.962,15.962,0,0,0,15.944,15.943,15.961,15.961,0,0,0,15.943-15.943,15.5,15.5,0,0,0-4.505-11.174A15.942,15.942,0,0,0-4650.056-4183Zm.735,23.547h-2.82v-7.481h-2.453v-2.453h2.576v-1.35a3.593,3.593,0,0,1,3.434-3.8h2.453v2.576h-2.576a.84.84,0,0,0-.612.857v1.717h3.065v2.453h-3.065v7.48Z" transform="translate(5827 7979)"/></g></svg>