<svg xmlns="http://www.w3.org/2000/svg" viewBox="5839 7993 36.001 36"><defs><style>.a{fill:#073447;}</style></defs><g transform="translate(4668 4186)"><path class="a" d="M-4632-4150h-36v-36h36v36Zm-18.057-34A15.962,15.962,0,0,0-4666-4168.057a15.962,15.962,0,0,0,15.944,15.944,15.961,15.961,0,0,0,15.943-15.944,15.5,15.5,0,0,0-4.506-11.175A15.94,15.94,0,0,0-4650.056-4184Zm.735,23.547h-2.82v-7.481h-2.453v-2.453h2.576v-1.348a3.594,3.594,0,0,1,3.434-3.8h2.453v2.576h-2.576a.841.841,0,0,0-.612.858v1.716h3.065v2.453h-3.065v7.48Z" transform="translate(5839 7993)"/></g></svg>