<svg xmlns="http://www.w3.org/2000/svg" viewBox="713.967 698.575 64.233 115.726"><defs><style>.a{fill:none;stroke:#fff;stroke-miterlimit:10;stroke-width:2px;}</style></defs><g transform="translate(713.9 698.6)"><path class="a" d="M26.2,33.8H37.8v74.5H26.2Z"/><line class="a" y1="74.5" transform="translate(32 33.8)"/><line class="a" x2="11.6" transform="translate(26.2 48.7)"/><line class="a" x2="11.6" transform="translate(26.2 67.8)"/><line class="a" x2="11.6" transform="translate(26.2 74.8)"/><line class="a" x2="11.6" transform="translate(26.2 77.3)"/><line class="a" x2="11.6" transform="translate(26.2 36.3)"/><line class="a" x2="11.4" transform="translate(26.3 31.3)"/><path class="a" d="M26.2,22.4l5.6-19,6,19Z"/><path class="a" d="M29.8,22.4,32.1,7.7l2.1,14.7"/><line class="a" x2="11.4" transform="translate(26.3 110.7)"/><path class="a" d="M28.5,110.7l-.9,3.9h8.8l-.6-3.9"/><rect class="a" width="11.6" height="3.9" transform="translate(26.2 24.9)"/><line class="a" y2="1.4" transform="translate(35.2 25.3)"/><line class="a" y2="2.1" transform="translate(32.8 26.7)"/></g><g transform="translate(713.9 698.6)"><path class="a" d="M6.9,38.7,4.7,51.5H8.9Z"/><path class="a" d="M9.8,53.9H3.7L2.2,58.5v8.1h9.2V58.4Z"/><line class="a" y1="0.1" x2="9.2" transform="translate(2.2 58.4)"/><path class="a" d="M2.1,66.6,1.4,69H12.2l-.9-2.4"/><path class="a" d="M12.5,71.3v40.1s-.3,3-5.8,3.3c-5.3-.2-5.6-3.3-5.6-3.3V71.3Z"/><line class="a" x2="11.4" transform="translate(1.1 111.2)"/><line class="a" x2="11.4" transform="translate(1.1 87.3)"/></g><g transform="translate(713.9 698.6)"><path class="a" d="M52.9,28.6S55,14.7,57.1,14.7s4.5,13.9,4.5,13.9Z"/><rect class="a" width="9.6" height="38.8" transform="translate(52.4 31.2)"/><path class="a" d="M51.1,107.1H63.3V74.8L62,70H52.4l-1.3,4.9Z"/><path class="a" d="M51.1,74.9h3.3l8.9-.1"/><rect class="a" width="9.6" height="2.6" transform="translate(52.4 109.6)"/><line class="a" x2="7.4" transform="translate(53.5 114.6)"/><line class="a" y1="19.7" transform="translate(57.2 50.6)"/><line class="a" x2="11.9" transform="translate(51.3 79.1)"/><line class="a" x2="11.9" transform="translate(51.3 82)"/><line class="a" y2="31.4" transform="translate(57.2 75.4)"/><line class="a" x2="9.1" transform="translate(52.7 38.9)"/><line class="a" x2="9.6" transform="translate(52.4 46.8)"/></g></svg>