<?xml version="1.0" encoding="utf-8"?>
<!-- Generator: Adobe Illustrator 21.0.0, SVG Export Plug-In . SVG Version: 6.00 Build 0)  -->
<svg version="1.1" id="Layer_1" xmlns="http://www.w3.org/2000/svg" xmlns:xlink="http://www.w3.org/1999/xlink" x="0px" y="0px"
	 viewBox="0 0 614 141.3" style="enable-background:new 0 0 614 141.3;" xml:space="preserve">
<style type="text/css">
	.st0{fill:#FFFFFF;}
	.st1{fill:#D1D2D3;}
</style>
<g>
	<path class="st0" d="M30.6,23.2h13.5l8.8,24.3c1.1,3.2,2.1,6.7,3.2,10.1h0.3c1.1-3.4,2-6.9,3.1-10.1l8.6-24.3h13.4v54.7H70.4V57.8
		c0-5.4,1-13.3,1.6-18.6h-0.3l-4.4,13l-7.8,20.9h-6.8l-7.8-20.9l-4.4-13h-0.3c0.6,5.3,1.6,13.3,1.6,18.6v20.1H30.6V23.2z"/>
	<path class="st0" d="M94.5,23.2h12.3v54.7H94.5V23.2z"/>
	<path class="st0" d="M116.2,71l7-8.5c3.9,3.4,9,5.7,13.5,5.7c5.1,0,7.6-2,7.6-5.3c0-3.4-3.1-4.5-7.9-6.5l-7.1-3
		c-5.6-2.3-11-7-11-14.9c0-9.1,8.1-16.3,19.5-16.3c6.3,0,12.9,2.5,17.6,7.2l-6.3,7.8c-3.6-2.8-7-4.4-11.3-4.4c-4.3,0-7,1.8-7,4.9
		c0,3.4,3.6,4.5,8.3,6.5l7,2.9c6.6,2.7,10.8,7.1,10.8,14.8c0,9.1-7.6,16.9-20.6,16.9C129.3,78.9,121.8,76.2,116.2,71z"/>
	<path class="st0" d="M161.4,71l7-8.5c3.9,3.4,9,5.7,13.5,5.7c5.1,0,7.6-2,7.6-5.3c0-3.4-3.1-4.5-7.9-6.5l-7.1-3
		c-5.6-2.3-11-7-11-14.9c0-9.1,8.1-16.3,19.5-16.3c6.3,0,12.9,2.5,17.6,7.2l-6.3,7.8c-3.6-2.8-7-4.4-11.3-4.4c-4.3,0-7,1.8-7,4.9
		c0,3.4,3.6,4.5,8.3,6.5l7,2.9c6.6,2.7,10.8,7.1,10.8,14.8c0,9.1-7.5,16.9-20.6,16.9C174.5,78.9,166.9,76.2,161.4,71z"/>
	<path class="st0" d="M211.5,23.2h12.3v54.7h-12.3V23.2z"/>
	<path class="st0" d="M236.8,23.2h12.3v44.3h21.6v10.4h-34V23.2z"/>
	<path class="st0" d="M280.2,23.2h34.2v10.4h-21.9v11h18.6v10.3h-18.6v12.6h22.7v10.4h-35.1V23.2z"/>
	<path class="st1" d="M338.7,28.7h-16.6v-5.9h40.3v5.9h-16.6v49.2h-7V28.7z"/>
	<path class="st1" d="M372.2,22.8h7v23.1h25.6V22.8h7v55h-7V51.9h-25.6v25.9h-7V22.8z"/>
	<path class="st1" d="M426.9,22.8h17.2c11.2,0,19.3,4,19.3,15.4c0,8.6-4.9,13.8-12.4,15.6l14,24h-7.9l-13.3-23.2h-10v23.2h-7V22.8z
		 M443.1,48.9c8.6,0,13.3-3.5,13.3-10.7c0-7.2-4.8-9.8-13.3-9.8h-9.2v20.5H443.1z"/>
	<path class="st1" d="M474.7,22.8h31.7v5.9h-24.7V46h20.9v6h-20.9v20h25.6v6h-32.6V22.8z"/>
	<path class="st1" d="M530.2,22.8h7.9l18.6,55h-7.5L544,61.1H524l-5.3,16.8h-7.1L530.2,22.8z M525.7,55.5h16.5l-2.6-8.4
		c-2-6.1-3.8-12.2-5.5-18.5h-0.3c-1.7,6.4-3.4,12.4-5.5,18.5L525.7,55.5z"/>
	<path class="st1" d="M571.3,28.7h-16.6v-5.9H595v5.9h-16.6v49.2h-7V28.7z"/>
</g>
<g>
	<path class="st1" d="M114.5,108.9c0-5.7,3.4-9.2,7.9-9.2c2.2,0,3.8,1,4.9,2.2l-1.2,1.5c-0.9-1-2.1-1.7-3.6-1.7
		c-3.4,0-5.6,2.8-5.6,7.2c0,4.5,2.1,7.3,5.5,7.3c1.7,0,3-0.8,4.1-2l1.2,1.4c-1.4,1.6-3.1,2.6-5.4,2.6
		C117.8,118.1,114.5,114.7,114.5,108.9z"/>
	<path class="st1" d="M130.2,115.5l1.4-1.6c1.3,1.3,3.1,2.2,4.9,2.2c2.3,0,3.7-1.2,3.7-2.9c0-1.8-1.3-2.4-2.9-3.1l-2.5-1.1
		c-1.7-0.7-3.6-2-3.6-4.6c0-2.7,2.4-4.7,5.6-4.7c2.1,0,4,0.9,5.2,2.2l-1.2,1.5c-1.1-1-2.4-1.7-4-1.7c-2,0-3.3,1-3.3,2.6
		c0,1.7,1.5,2.4,2.9,2.9l2.5,1.1c2.1,0.9,3.7,2.1,3.7,4.7c0,2.8-2.3,5.1-6,5.1C133.9,118.1,131.7,117.1,130.2,115.5z"/>
	<path class="st1" d="M147,100h2.2v17.7H147V100z"/>
	<path class="st1" d="M153.9,115.5l1.4-1.6c1.3,1.3,3.1,2.2,4.9,2.2c2.3,0,3.7-1.2,3.7-2.9c0-1.8-1.3-2.4-2.9-3.1l-2.5-1.1
		c-1.7-0.7-3.6-2-3.6-4.6c0-2.7,2.4-4.7,5.6-4.7c2.1,0,4,0.9,5.2,2.2l-1.2,1.5c-1.1-1-2.4-1.7-4-1.7c-2,0-3.3,1-3.3,2.6
		c0,1.7,1.5,2.4,2.9,2.9l2.5,1.1c2.1,0.9,3.7,2.1,3.7,4.7c0,2.8-2.3,5.1-6,5.1C157.6,118.1,155.4,117.1,153.9,115.5z"/>
	<path class="st1" d="M177.2,100h2.7l3.4,9.5c0.4,1.2,0.8,2.5,1.3,3.7h0.1c0.4-1.2,0.8-2.5,1.2-3.7l3.4-9.5h2.7v17.7h-2.1V108
		c0-1.6,0.2-3.7,0.3-5.2h-0.1l-1.4,4l-3.4,9.2h-1.5l-3.4-9.2l-1.4-4H179c0.1,1.6,0.3,3.7,0.3,5.2v9.8h-2V100z"/>
	<path class="st1" d="M198,100h2.2v17.7H198V100z"/>
	<path class="st1" d="M204.9,115.5l1.4-1.6c1.3,1.3,3.1,2.2,4.9,2.2c2.3,0,3.7-1.2,3.7-2.9c0-1.8-1.3-2.4-2.9-3.1l-2.5-1.1
		c-1.7-0.7-3.6-2-3.6-4.6c0-2.7,2.4-4.7,5.6-4.7c2.1,0,4,0.9,5.2,2.2l-1.2,1.5c-1.1-1-2.4-1.7-4-1.7c-2,0-3.3,1-3.3,2.6
		c0,1.7,1.5,2.4,2.9,2.9l2.5,1.1c2.1,0.9,3.7,2.1,3.7,4.7c0,2.8-2.3,5.1-6,5.1C208.6,118.1,206.4,117.1,204.9,115.5z"/>
	<path class="st1" d="M220,115.5l1.4-1.6c1.3,1.3,3.1,2.2,4.9,2.2c2.3,0,3.7-1.2,3.7-2.9c0-1.8-1.3-2.4-2.9-3.1l-2.5-1.1
		c-1.7-0.7-3.6-2-3.6-4.6c0-2.7,2.4-4.7,5.6-4.7c2.1,0,4,0.9,5.2,2.2l-1.2,1.5c-1.1-1-2.4-1.7-4-1.7c-2,0-3.3,1-3.3,2.6
		c0,1.7,1.5,2.4,2.9,2.9l2.5,1.1c2.1,0.9,3.7,2.1,3.7,4.7c0,2.8-2.3,5.1-6,5.1C223.7,118.1,221.6,117.1,220,115.5z"/>
	<path class="st1" d="M236.8,100h2.2v17.7h-2.2V100z"/>
	<path class="st1" d="M245,100h2.2v15.8h7.8v1.9h-10V100z"/>
	<path class="st1" d="M259.3,100h10.2v1.9h-8v5.6h6.7v1.9h-6.7v6.4h8.2v1.9h-10.5V100z"/>
	<path class="st1" d="M281.1,100h4.4c5.5,0,8.4,3.2,8.4,8.8c0,5.7-2.9,9-8.3,9h-4.5V100z M285.4,115.9c4.1,0,6.2-2.6,6.2-7.1
		c0-4.5-2.1-6.9-6.2-6.9h-2v14.1H285.4z"/>
	<path class="st1" d="M298.8,100h10.2v1.9h-8v5.6h6.7v1.9h-6.7v6.4h8.2v1.9h-10.5V100z"/>
	<path class="st1" d="M314.2,100h10.2v1.9h-8v6h6.8v1.9h-6.8v8h-2.2V100z"/>
	<path class="st1" d="M328.6,100h10.2v1.9h-8v5.6h6.7v1.9h-6.7v6.4h8.2v1.9h-10.5V100z"/>
	<path class="st1" d="M344,100h2.3l6.4,11.1l1.9,3.7h0.1c-0.1-1.8-0.3-3.8-0.3-5.7V100h2.1v17.7h-2.3l-6.4-11.2l-1.9-3.7h-0.1
		c0.1,1.8,0.3,3.7,0.3,5.5v9.3H344V100z"/>
	<path class="st1" d="M361.3,115.5l1.4-1.6c1.3,1.3,3.1,2.2,4.9,2.2c2.3,0,3.7-1.2,3.7-2.9c0-1.8-1.3-2.4-2.9-3.1l-2.5-1.1
		c-1.7-0.7-3.6-2-3.6-4.6c0-2.7,2.4-4.7,5.6-4.7c2.1,0,4,0.9,5.2,2.2l-1.2,1.5c-1.1-1-2.4-1.7-4-1.7c-2,0-3.3,1-3.3,2.6
		c0,1.7,1.5,2.4,2.9,2.9l2.5,1.1c2.1,0.9,3.7,2.1,3.7,4.7c0,2.8-2.3,5.1-6,5.1C365,118.1,362.8,117.1,361.3,115.5z"/>
	<path class="st1" d="M378.1,100h10.2v1.9h-8v5.6h6.7v1.9h-6.7v6.4h8.2v1.9h-10.5V100z"/>
	<path class="st1" d="M399.9,100h5.1c4,0,6.7,1.3,6.7,5.2c0,3.7-2.7,5.5-6.5,5.5h-2.9v7h-2.2V100z M404.8,108.9
		c3.1,0,4.6-1.1,4.6-3.7c0-2.6-1.6-3.4-4.7-3.4h-2.5v7.1H404.8z"/>
	<path class="st1" d="M416.3,100h5.5c3.6,0,6.2,1.3,6.2,5c0,2.8-1.6,4.4-4,5l4.5,7.7h-2.5l-4.3-7.5h-3.2v7.5h-2.2V100z M421.5,108.4
		c2.8,0,4.3-1.1,4.3-3.4c0-2.3-1.5-3.2-4.3-3.2h-3v6.6H421.5z"/>
	<path class="st1" d="M431.8,108.8c0-5.7,3.1-9.1,7.6-9.1c4.5,0,7.6,3.5,7.6,9.1c0,5.7-3.1,9.3-7.6,9.3
		C434.9,118.1,431.8,114.5,431.8,108.8z M444.6,108.8c0-4.4-2.1-7.1-5.2-7.1c-3.2,0-5.2,2.7-5.2,7.1c0,4.4,2.1,7.3,5.2,7.3
		C442.5,116.1,444.6,113.2,444.6,108.8z"/>
	<path class="st1" d="M449.2,115.2l1.6-1.1c0.8,1.4,1.8,2,3.1,2c1.9,0,2.8-1.1,2.8-3.8V100h2.3v12.5c0,3.1-1.4,5.5-4.9,5.5
		C451.8,118.1,450.2,117.1,449.2,115.2z"/>
	<path class="st1" d="M464.8,100h10.2v1.9h-8v5.6h6.7v1.9h-6.7v6.4h8.2v1.9h-10.5V100z"/>
	<path class="st1" d="M479.1,108.9c0-5.7,3.4-9.2,7.9-9.2c2.2,0,3.8,1,4.9,2.2l-1.2,1.5c-0.9-1-2.1-1.7-3.6-1.7
		c-3.4,0-5.6,2.8-5.6,7.2c0,4.5,2.1,7.3,5.5,7.3c1.7,0,3-0.8,4.1-2l1.2,1.4c-1.4,1.6-3.1,2.6-5.4,2.6
		C482.5,118.1,479.1,114.7,479.1,108.9z"/>
	<path class="st1" d="M499.9,101.9h-5.4V100h13v1.9h-5.4v15.8h-2.3V101.9z"/>
</g>
</svg>
