<svg xmlns="http://www.w3.org/2000/svg" viewBox="5777 7936 36.001 36"><defs><style>.a{fill:#073447;}</style></defs><g transform="translate(4668 4186)"><path class="a" d="M-4632-4150h-36v-36h36v36Zm-18.057-34A15.962,15.962,0,0,0-4666-4168.057a15.962,15.962,0,0,0,15.944,15.944,15.961,15.961,0,0,0,15.943-15.944,15.5,15.5,0,0,0-4.506-11.175A15.94,15.94,0,0,0-4650.056-4184Zm-2.453,22.444a7.956,7.956,0,0,1-4.783-1.471h.735a6.34,6.34,0,0,0,3.925-1.35,3.184,3.184,0,0,1-2.943-2.208h.614a2.077,2.077,0,0,0,.857-.123,2.8,2.8,0,0,1-2.575-2.821l.179.045,1.292.323a3.024,3.024,0,0,1-1.35-2.575,2.576,2.576,0,0,1,.368-1.715,8.952,8.952,0,0,0,6.5,3.31,1.54,1.54,0,0,0-.062-.369,1.536,1.536,0,0,1-.062-.368,3.231,3.231,0,0,1,3.189-3.187,3.37,3.37,0,0,1,2.33.98,5.453,5.453,0,0,0,1.962-.736,3.189,3.189,0,0,1-1.35,1.717,10.354,10.354,0,0,0,1.84-.491,7.6,7.6,0,0,1-1.717,1.716v.369A8.866,8.866,0,0,1-4652.509-4161.556Z" transform="translate(5777 7936)"/></g></svg>