<svg xmlns="http://www.w3.org/2000/svg" viewBox="1185.5 490.287 63.3 113.413"><defs><style>.a{fill:none;stroke:#fff;stroke-miterlimit:10;stroke-width:1px;}</style></defs><g transform="translate(931)"><g transform="translate(254.5 490.3)"><path class="a" d="M25.6,32.1H37.2v74.5H25.6Z"/><line class="a" y1="74.5" transform="translate(31.4 32.1)"/><line class="a" x2="11.6" transform="translate(25.6 47)"/><line class="a" x2="11.6" transform="translate(25.6 66.1)"/><line class="a" x2="11.6" transform="translate(25.6 73.1)"/><line class="a" x2="11.6" transform="translate(25.6 75.6)"/><line class="a" x2="11.6" transform="translate(25.6 34.6)"/><line class="a" x2="11.4" transform="translate(25.7 29.6)"/><path class="a" d="M25.6,20.7l5.6-19,6,19Z"/><path class="a" d="M29.2,20.7,31.5,6l2.1,14.7"/><line class="a" x2="11.4" transform="translate(25.7 109)"/><path class="a" d="M27.9,109l-.9,3.9h8.8l-.6-3.9"/><rect class="a" width="11.6" height="3.9" transform="translate(25.6 23.2)"/><line class="a" y2="1.4" transform="translate(34.7 23.6)"/><line class="a" y2="2.1" transform="translate(32.2 25)"/></g><g transform="translate(254.5 490.3)"><path class="a" d="M6.3,37,4.1,49.8H8.3Z"/><path class="a" d="M9.2,52.2H3.1L1.6,56.8v8.1h9.2V56.7Z"/><line class="a" y1="0.1" x2="9.2" transform="translate(1.6 56.7)"/><path class="a" d="M1.5,64.9.8,67.3H11.6l-.8-2.4"/><path class="a" d="M11.9,69.5v40.1s-.3,3-5.8,3.3c-5.3-.2-5.6-3.3-5.6-3.3V69.5Z"/><line class="a" x2="11.4" transform="translate(0.5 109.5)"/><line class="a" x2="11.4" transform="translate(0.5 85.6)"/></g><g transform="translate(254.5 490.3)"><path class="a" d="M52.3,26.9S54.4,13,56.5,13,61,26.9,61,26.9Z"/><rect class="a" width="9.6" height="38.8" transform="translate(51.8 29.5)"/><path class="a" d="M50.5,105.4H62.8V73.1l-1.4-4.8H51.8l-1.3,4.9Z"/><path class="a" d="M50.5,73.2h3.3l9-.1"/><rect class="a" width="9.6" height="2.6" transform="translate(51.8 107.9)"/><line class="a" x2="7.4" transform="translate(52.9 112.9)"/><line class="a" y1="19.7" transform="translate(56.6 48.9)"/><line class="a" x2="11.9" transform="translate(50.7 77.4)"/><line class="a" x2="11.9" transform="translate(50.7 80.3)"/><line class="a" y2="31.4" transform="translate(56.6 73.7)"/><line class="a" x2="9.1" transform="translate(52.1 37.2)"/><line class="a" x2="9.7" transform="translate(51.8 45.1)"/></g></g></svg>